<?xml version="1.0" encoding="UTF-8"?>
<svg width="64px" height="64px" viewBox="0 0 64 64" version="1.1" xmlns="http://www.w3.org/2000/svg" xmlns:xlink="http://www.w3.org/1999/xlink">
    <title>034EB55F-EF43-48A4-8AA8-32C774A168AB</title>
    <g id="Page-1" stroke="none" stroke-width="1" fill="none" fill-rule="evenodd">
        <g id="weather-icon-v1" transform="translate(-128.000000, -189.000000)">
            <g id="icon-weather-clear-sky" transform="translate(128.000000, 189.000000)">
                <rect id="Rectangle" fill-opacity="0" fill="#000000" x="0" y="0" width="64" height="64"></rect>
                <g transform="translate(5.000000, 5.000000)" fill="#F05A23" fill-rule="nonzero" id="Shape">
                    <path d="M0,26.98809 C0,26.3687693 0.214380238,25.8447287 0.643140715,25.4159682 C1.08778121,25.0030878 1.59594177,24.7966476 2.16762241,24.7966476 L7.36038818,24.7966476 C7.94794883,24.7966476 8.43625937,25.0110278 8.82531981,25.4397883 C9.21438024,25.8685487 9.40891045,26.3846493 9.40891045,26.98809 C9.40891045,27.5915307 9.21438024,28.1036612 8.82531981,28.5244817 C8.43625937,28.9453022 7.94794883,29.1557124 7.36038818,29.1557124 L2.16762241,29.1557124 C1.58006176,29.1557124 1.07190119,28.9413322 0.643140715,28.5125717 C0.214380238,28.0838112 0,27.5756506 0,26.98809 Z M7.26510807,44.5910895 C7.26510807,44.0035289 7.46360829,43.4874283 7.86060873,43.0427878 L11.6003529,39.4221438 C11.9814733,39.0251434 12.4816939,38.8266431 13.1010146,38.8266431 C13.7044552,38.8266431 14.2086458,39.0172034 14.6135862,39.3983238 C15.0185267,39.7794442 15.2209969,40.2637847 15.2209969,40.8513454 C15.2209969,41.4706661 15.0145567,42.0105867 14.6016762,42.4711072 L10.9810322,46.0917512 C9.94883105,46.9016321 8.9086899,46.9016321 7.86060873,46.0917512 C7.46360829,45.6629907 7.26510807,45.1627702 7.26510807,44.5910895 Z M7.26510807,9.40891045 C7.26510807,8.8213498 7.46360829,8.30524923 7.86060873,7.86060873 C8.35288928,7.44772828 8.89280988,7.24128805 9.48037053,7.24128805 C10.0361712,7.24128805 10.5363917,7.44772828 10.9810322,7.86060873 L14.6016762,11.6003529 C15.0145567,11.9814733 15.2209969,12.4816939 15.2209969,13.1010146 C15.2209969,13.7044552 15.0185267,14.2086458 14.6135862,14.6135862 C14.2086458,15.0185267 13.7044552,15.2209969 13.1010146,15.2209969 C12.4816939,15.2209969 11.9814733,15.0145567 11.6003529,14.6016762 L7.86060873,10.9810322 C7.46360829,10.5522717 7.26510807,10.0282311 7.26510807,9.40891045 Z M13.7441553,26.98809 C13.7441553,24.6219674 14.3396559,22.4186149 15.5306573,20.3780326 C16.7216586,18.3374504 18.3374504,16.7216586 20.3780326,15.5306573 C22.4186149,14.3396559 24.6219674,13.7441553 26.98809,13.7441553 C28.766652,13.7441553 30.4737539,14.0974857 32.1093957,14.8041464 C33.7450375,15.5108072 35.1543891,16.4556683 36.3374504,17.6387296 C37.5205117,18.8217909 38.4614027,20.2311425 39.1601235,21.8667843 C39.8588443,23.5024261 40.2082047,25.209528 40.2082047,26.98809 C40.2082047,29.3700926 39.616674,31.5774151 38.4336127,33.6100573 C37.2505514,35.6426996 35.6426996,37.2505514 33.6100573,38.4336127 C31.5774151,39.616674 29.3700926,40.2082047 26.98809,40.2082047 C24.6060873,40.2082047 22.3987649,39.616674 20.3661226,38.4336127 C18.3334804,37.2505514 16.7216586,35.6426996 15.5306573,33.6100573 C14.3396559,31.5774151 13.7441553,29.3700926 13.7441553,26.98809 Z M18.0555801,26.98809 C18.0555801,29.4653727 18.925011,31.5813851 20.663873,33.336127 C22.4027349,35.090869 24.5108072,35.96824 26.98809,35.96824 C29.4653727,35.96824 31.5813851,35.090869 33.336127,33.336127 C35.090869,31.5813851 35.96824,29.4653727 35.96824,26.98809 C35.96824,24.5425673 35.090869,22.4543449 33.336127,20.723423 C31.5813851,18.9925011 29.4653727,18.1270401 26.98809,18.1270401 C24.5266873,18.1270401 22.4225849,18.9925011 20.675783,20.723423 C18.928981,22.4543449 18.0555801,24.5425673 18.0555801,26.98809 Z M24.8204676,46.7348919 C24.8204676,46.1314513 25.0308778,45.6232907 25.4516983,45.2104102 C25.8725187,44.7975298 26.3846493,44.5910895 26.98809,44.5910895 C27.6074107,44.5910895 28.1235112,44.7975298 28.5363917,45.2104102 C28.9492722,45.6232907 29.1557124,46.1314513 29.1557124,46.7348919 L29.1557124,51.7847375 C29.1557124,52.4040582 28.9453022,52.9280988 28.5244817,53.3568593 C28.1036612,53.7856198 27.5915307,54 26.98809,54 C26.3846493,54 25.8725187,53.7856198 25.4516983,53.3568593 C25.0308778,52.9280988 24.8204676,52.4040582 24.8204676,51.7847375 L24.8204676,46.7348919 Z M24.8204676,7.36038818 L24.8204676,2.16762241 C24.8204676,1.58006176 25.0348478,1.07190119 25.4636083,0.643140715 C25.8923688,0.214380238 26.4005293,0 26.98809,0 C27.5756506,0 28.0838112,0.214380238 28.5125717,0.643140715 C28.9413322,1.07190119 29.1557124,1.58006176 29.1557124,2.16762241 L29.1557124,7.36038818 C29.1557124,7.94794883 28.9453022,8.43625937 28.5244817,8.82531981 C28.1036612,9.21438024 27.5915307,9.40891045 26.98809,9.40891045 C26.3846493,9.40891045 25.8725187,9.21438024 25.4516983,8.82531981 C25.0308778,8.43625937 24.8204676,7.94794883 24.8204676,7.36038818 Z M38.8504632,40.8513454 C38.8504632,40.2637847 39.0410234,39.7873842 39.4221438,39.4221438 C39.8032642,39.0251434 40.2796648,38.8266431 40.8513454,38.8266431 C41.4706661,38.8266431 41.9788266,39.0251434 42.3758271,39.4221438 L46.0917512,43.0427878 C46.5046317,43.4874283 46.7110719,44.0035289 46.7110719,44.5910895 C46.7110719,45.1786502 46.5046317,45.6788708 46.0917512,46.0917512 C45.0754301,46.8857521 44.059109,46.8857521 43.0427878,46.0917512 L39.4221438,42.4711072 C39.0410234,42.0423467 38.8504632,41.5024261 38.8504632,40.8513454 Z M38.8504632,13.1010146 C38.8504632,12.4658139 39.0410234,11.9655933 39.4221438,11.6003529 L43.0427878,7.86060873 C43.4874283,7.44772828 43.9876489,7.24128805 44.5434495,7.24128805 C45.1468902,7.24128805 45.6590207,7.45566828 46.0798412,7.88442876 C46.5006617,8.31318924 46.7110719,8.8213498 46.7110719,9.40891045 C46.7110719,10.0441112 46.5046317,10.5681517 46.0917512,10.9810322 L42.3758271,14.6016762 C41.9153066,15.0145567 41.407146,15.2209969 40.8513454,15.2209969 C40.2796648,15.2209969 39.8032642,15.0185267 39.4221438,14.6135862 C39.0410234,14.2086458 38.8504632,13.7044552 38.8504632,13.1010146 Z M45.1865902,28.5363917 C44.7895898,28.1076312 44.5910895,27.5915307 44.5910895,26.98809 C44.5910895,26.3846493 44.7975298,25.8606087 45.2104102,25.4159682 C45.6232907,25.0030878 46.1076312,24.7966476 46.6634318,24.7966476 L51.8085576,24.7966476 C52.3961182,24.7966476 52.9082488,25.0149978 53.3449493,25.4516983 C53.7816498,25.8883988 54,26.4005293 54,26.98809 C54,27.5756506 53.7816498,28.0838112 53.3449493,28.5125717 C52.9082488,28.9413322 52.3961182,29.1557124 51.8085576,29.1557124 L46.6634318,29.1557124 C46.0758712,29.1557124 45.5835906,28.9492722 45.1865902,28.5363917 Z"></path>
                </g>
            </g>
        </g>
    </g>
</svg>