<?xml version="1.0" encoding="UTF-8"?>
<svg width="64px" height="64px" viewBox="0 0 64 64" version="1.1" xmlns="http://www.w3.org/2000/svg" xmlns:xlink="http://www.w3.org/1999/xlink">
    <title>920F0B96-245E-4DFE-97D6-F7BC8FCBBAFA</title>
    <g id="Page-1" stroke="none" stroke-width="1" fill="none" fill-rule="evenodd">
        <g id="weather-icon-v1" transform="translate(-840.000000, -189.000000)">
            <g id="icon-weather-cloudy" transform="translate(840.000000, 189.000000)">
                <rect id="Rectangle" fill-opacity="0" fill="#000000" x="0" y="0" width="64" height="64"></rect>
                <g id="ï" transform="translate(5.000000, 14.000000)" fill="#F05A23" fill-rule="nonzero">
                    <path d="M0,23.6344783 C0,20.7725211 0.934115523,18.2216461 2.80234657,15.9818535 C4.67057762,13.7420609 7.04241877,12.3033052 9.91787004,11.6655865 C10.7301444,8.25923526 12.5577617,5.46338302 15.400722,3.27802981 C18.2436823,1.0926766 21.5009025,0 25.1723827,0 C28.7626354,0 31.958935,1.0654569 34.7612816,3.19637071 C37.5636282,5.32728451 39.3871841,8.05703176 40.2319495,11.3856124 L41.0848375,11.3856124 C43.4241877,11.3856124 45.5848375,11.926118 47.566787,13.007129 C49.5487365,14.08814 51.116426,15.5696695 52.2698556,17.4517174 C53.4232852,19.3337654 54,21.3946857 54,23.6344783 C54,25.8276086 53.4517148,27.8574206 52.3551444,29.7239145 C51.258574,31.5904083 49.7558664,33.0874919 47.8470217,34.2151653 C45.9381769,35.3428386 43.8465704,35.9377835 41.5722022,36 L12.4765343,36 C9,35.8444588 6.05144404,34.5767984 3.63086643,32.1970188 C1.21028881,29.8172391 0,26.963059 0,23.6344783 Z M4.43501805,23.6344783 C4.43501805,25.7965003 5.21886282,27.6746598 6.78655235,29.2689566 C8.35424188,30.8632534 10.2509025,31.7148412 12.4765343,31.82372 L41.5722022,31.82372 C43.7978339,31.7148412 45.698556,30.8632534 47.2743682,29.2689566 C48.8501805,27.6746598 49.6380866,25.7965003 49.6380866,23.6344783 C49.6380866,21.4569021 48.7933213,19.5709657 47.1037906,17.9766688 C45.4142599,16.382372 43.4079422,15.5852236 41.0848375,15.5852236 L36.8691336,15.5852236 C36.5767148,15.5852236 36.4305054,15.4374595 36.4305054,15.1419313 L36.2355596,13.7187297 C35.9431408,11.0278678 34.732852,8.77252106 32.6046931,6.95268957 C30.4765343,5.13285807 27.9990975,4.22294232 25.1723827,4.22294232 C22.3294224,4.22294232 19.8560469,5.13285807 17.7522563,6.95268957 C15.6484657,8.77252106 14.4584838,11.0278678 14.1823105,13.7187297 L13.9873646,15.1419313 C13.9873646,15.4374595 13.816787,15.5852236 13.4756318,15.5852236 L12.1110108,15.5852236 C9.93411552,15.8340894 8.11055957,16.720674 6.64034296,18.2449773 C5.17012635,19.7692806 4.43501805,21.5657809 4.43501805,23.6344783 Z" id="Shape"></path>
                </g>
            </g>
        </g>
    </g>
</svg>