<?xml version="1.0" encoding="UTF-8"?>
<svg width="64px" height="64px" viewBox="0 0 64 64" version="1.1" xmlns="http://www.w3.org/2000/svg" xmlns:xlink="http://www.w3.org/1999/xlink">
    <title>75699CB1-50C2-4698-919B-BE96D18756B6</title>
    <g id="Page-1" stroke="none" stroke-width="1" fill="none" fill-rule="evenodd">
        <g id="weather-icon-v1" transform="translate(-364.000000, -482.000000)">
            <g id="icon-weather-dense-fog" transform="translate(364.000000, 482.000000)">
                <rect id="Rectangle" fill-opacity="0" fill="#000000" x="0" y="0" width="64" height="64"></rect>
                <g id="" transform="translate(5.000000, 13.000000)" fill="#F05A23" fill-rule="nonzero">
                    <path d="M0,29.5037353 C0,28.9765208 0.184021204,28.5371754 0.552063612,28.185699 C0.92010602,27.8342227 1.37675123,27.6584845 1.92199924,27.6584845 L42.6315789,27.6584845 C43.176827,27.6584845 43.6232488,27.8308431 43.9708444,28.1755603 C44.31844,28.5202775 44.4922378,28.9630025 44.4922378,29.5037353 C44.4922378,30.0039132 44.3116244,30.4229811 43.9503976,30.7609392 C43.5891708,31.0988972 43.1495646,31.2678762 42.6315789,31.2678762 L1.92199924,31.2678762 C1.37675123,31.2678762 0.92010602,31.0988972 0.552063612,30.7609392 C0.184021204,30.4229811 0,30.0039132 0,29.5037353 Z M5.70465733,22.7107791 C5.70465733,22.1835646 5.89549413,21.7509783 6.27716774,21.4130203 C6.60431655,21.0885806 7.03369936,20.9263607 7.56531617,20.9263607 L48.2953427,20.9263607 C48.7996971,20.9263607 49.2222643,21.0987193 49.5630443,21.4434365 C49.9038243,21.7881537 50.0742143,22.2106012 50.0742143,22.7107791 C50.0742143,23.2244753 49.9038243,23.6604411 49.5630443,24.0186766 C49.2222643,24.3769121 48.7996971,24.5560299 48.2953427,24.5560299 L7.56531617,24.5560299 C7.04733056,24.5560299 6.60772435,24.3735326 6.24649754,24.0085379 C5.88527073,23.6435432 5.70465733,23.210957 5.70465733,22.7107791 Z M5.99091253,17.5602988 C5.99091253,17.7495553 6.09996214,17.8441836 6.31806134,17.8441836 L9.44642181,17.8441836 C9.58273381,17.8441836 9.72586142,17.7292778 9.87580462,17.4994664 C10.3937902,16.3774457 11.1673608,15.4581999 12.1965165,14.7417289 C13.2256721,14.0252579 14.3536539,13.6197083 15.5804619,13.52508 L16.7868232,13.3628602 C17.0321848,13.3628602 17.1548656,13.2344361 17.1548656,12.977588 L17.2979932,11.9028815 C17.5297236,9.56421202 18.528209,7.61419424 20.2934495,6.05282818 C22.0586899,4.49146211 24.1272245,3.71077908 26.4990534,3.71077908 C28.857251,3.71077908 30.9121545,4.48132337 32.6637637,6.02241195 C34.415373,7.56350053 35.4138584,9.49662042 35.65922,11.8217716 L35.8227944,13.058698 C35.8227944,13.3020277 35.965922,13.4236926 36.2521772,13.4236926 L39.7281333,13.4236926 C41.1321469,13.4236926 42.4100719,13.7954465 43.5619084,14.5389541 C44.7137448,15.2824618 45.5691026,16.2692992 46.1279818,17.4994664 C46.277925,17.7292778 46.4278682,17.8441836 46.5778114,17.8441836 L49.7061719,17.8441836 C49.9651647,17.8441836 50.0673987,17.6819637 50.0128739,17.357524 C49.3722075,15.1405194 48.1045059,13.3290644 46.209769,11.923159 C44.3150322,10.5172536 42.1544869,9.81430096 39.7281333,9.81430096 L39.0329421,9.81430096 C38.3104885,6.93489861 36.7872018,4.5793312 34.4630822,2.74759872 C32.1389625,0.91586624 29.4842863,0 26.4990534,0 C23.4456645,0 20.7330557,0.949662042 18.3612268,2.84898613 C15.989398,4.74831021 14.4695191,7.17146923 13.8015903,10.1184632 C11.9477471,10.5510494 10.3222264,11.4229811 8.9250284,12.7342583 C7.52783037,14.0455354 6.55660735,15.6136606 6.01135933,17.4386339 L6.01135933,17.357524 C5.99772813,17.398079 5.99091253,17.4656706 5.99091253,17.5602988 Z M9.50776221,36.1344717 C9.50776221,35.6207755 9.69859902,35.1949484 10.0802726,34.8569904 C10.4074214,34.5325507 10.8436198,34.3703308 11.3888679,34.3703308 L52.1393412,34.3703308 C52.6573268,34.3703308 53.096933,34.5393099 53.4581598,34.8772679 C53.8193866,35.2152259 54,35.6342938 54,36.1344717 C54,36.6481679 53.8159788,37.0875133 53.4479364,37.452508 C53.079894,37.8175027 52.6436956,38 52.1393412,38 L11.3888679,38 C10.8845134,38 10.4449072,37.8141231 10.0700492,37.4423693 C9.69519122,37.0706154 9.50776221,36.6346496 9.50776221,36.1344717 Z" id="Shape"></path>
                </g>
            </g>
        </g>
    </g>
</svg>