<?xml version="1.0" encoding="UTF-8"?>
<svg width="64px" height="64px" viewBox="0 0 64 64" version="1.1" xmlns="http://www.w3.org/2000/svg" xmlns:xlink="http://www.w3.org/1999/xlink">
    <title>915D7BBC-0E04-41F4-984F-E18FE9D9238E</title>
    <g id="Page-1" stroke="none" stroke-width="1" fill="none" fill-rule="evenodd">
        <g id="weather-icon-v1" transform="translate(-1069.000000, -482.000000)">
            <g id="icon-weather-drizzle" transform="translate(1069.000000, 482.000000)">
                <rect id="Rectangle" fill-opacity="0" fill="#000000" x="0" y="0" width="64" height="64"></rect>
                <g id="" transform="translate(5.000000, 8.000000)" fill="#F05A23" fill-rule="nonzero">
                    <path d="M0,27.2702703 C0,23.954955 0.936651584,21.0045045 2.80995475,18.4189189 C4.68325792,15.8333333 7.05339367,14.1711712 9.92036199,13.4324324 C10.718552,9.5045045 12.5429864,6.28378378 15.3936652,3.77027027 C18.2443439,1.25675676 21.5104072,0 25.1918552,0 C28.7755656,0 31.9683258,1.22522523 34.7701357,3.67567568 C37.5719457,6.12612613 39.4045249,9.27927928 40.2678733,13.1351351 L41.0742081,13.1351351 C43.4036199,13.1351351 45.561991,13.7612613 47.5493213,15.0135135 C49.5366516,16.2657658 51.1085973,17.9774775 52.2651584,20.1486486 C53.4217195,22.3198198 54,24.6936937 54,27.2702703 C54,31.1261261 52.7986425,34.4414414 50.3959276,37.2162162 C47.9932127,39.990991 45.0570136,41.4414414 41.5873303,41.5675676 C41.2452489,41.5675676 41.0742081,41.4054054 41.0742081,41.0810811 L41.0742081,37.2432432 C41.0742081,36.9009009 41.2452489,36.7297297 41.5873303,36.7297297 C43.8190045,36.6036036 45.7167421,35.6216216 47.280543,33.7837838 C48.8443439,31.9459459 49.6262443,29.7747748 49.6262443,27.2702703 C49.6262443,24.7657658 48.7791855,22.5900901 47.0850679,20.7432432 C45.3909502,18.8963964 43.3873303,17.972973 41.0742081,17.972973 L36.8959276,17.972973 C36.5701357,17.972973 36.4072398,17.8108108 36.4072398,17.4864865 L36.2361991,15.8108108 C35.959276,12.7117117 34.7579186,10.1081081 32.6321267,8 C30.5063348,5.89189189 28.0262443,4.83783784 25.1918552,4.83783784 C22.3411765,4.83783784 19.8570136,5.88738739 17.7393665,7.98648649 C15.6217195,10.0855856 14.4244344,12.6936937 14.1475113,15.8108108 L14.000905,17.3783784 C14.000905,17.7207207 13.8298643,17.8918919 13.4877828,17.8918919 L12.119457,17.972973 C9.98552036,18.0810811 8.17330317,19.045045 6.68280543,20.8648649 C5.19230769,22.6846847 4.44705882,24.8198198 4.44705882,27.2702703 C4.44705882,29.7747748 5.22895928,31.9459459 6.79276018,33.7837838 C8.35656109,35.6216216 10.2542986,36.6036036 12.4859729,36.7297297 C12.7791855,36.7297297 12.9257919,36.9009009 12.9257919,37.2432432 L12.9257919,41.0810811 C12.9257919,41.4054054 12.7791855,41.5675676 12.4859729,41.5675676 C9,41.3873874 6.04751131,39.9189189 3.62850679,37.1621622 C1.20950226,34.4054054 0,31.1081081 0,27.2702703 Z M15.4425339,29.8108108 C15.4425339,29.1081081 15.760181,28.1576577 16.3954751,26.9594595 C17.0307692,25.7612613 17.6253394,24.7927928 18.1791855,24.0540541 C18.7330317,23.3693694 19.0669683,22.963964 19.1809955,22.8378378 L20.1095023,24 C20.7773756,24.7927928 21.4004525,25.7702703 21.978733,26.9324324 C22.5570136,28.0945946 22.8461538,29.0540541 22.8461538,29.8108108 C22.8461538,30.9459459 22.4959276,31.8918919 21.7954751,32.6486486 C21.0950226,33.4054054 20.2235294,33.7837838 19.1809955,33.7837838 C18.1547511,33.7837838 17.2751131,33.3963964 16.5420814,32.6216216 C15.8090498,31.8468468 15.4425339,30.9099099 15.4425339,29.8108108 Z M23.2126697,41.2972973 C23.2126697,40.5045045 23.420362,39.5855856 23.8357466,38.5405405 C24.2511312,37.4954955 24.760181,36.5135135 25.3628959,35.5945946 C25.8352941,34.8558559 26.4135747,34.0495495 27.0977376,33.1756757 C27.7819005,32.3018018 28.3031674,31.6756757 28.6615385,31.2972973 C28.840724,31.1171171 29.0524887,30.8918919 29.2968326,30.6216216 L29.9321267,31.2972973 C30.9095023,32.2522523 32.0171946,33.6576577 33.2552036,35.5135135 C33.8742081,36.4684685 34.3873303,37.4684685 34.7945701,38.5135135 C35.20181,39.5585586 35.4054299,40.4864865 35.4054299,41.2972973 C35.4054299,43.1531532 34.8149321,44.7342342 33.6339367,46.0405405 C32.4529412,47.3468468 31.0072398,48 29.2968326,48 C27.6190045,48 26.1855204,47.3513514 24.9963801,46.0540541 C23.8072398,44.7567568 23.2126697,43.1711712 23.2126697,41.2972973 Z M27.0488688,22.1081081 C27.0488688,20.9009009 27.8959276,19.3603604 29.5900452,17.4864865 L30.2253394,18.2162162 C30.681448,18.8288288 31.0968326,19.509009 31.4714932,20.2567568 C31.8461538,21.0045045 32.0334842,21.6216216 32.0334842,22.1081081 C32.0334842,22.8468468 31.7932127,23.481982 31.3126697,24.0135135 C30.8321267,24.545045 30.2579186,24.8108108 29.5900452,24.8108108 C28.8895928,24.8108108 28.2909502,24.545045 27.7941176,24.0135135 C27.2972851,23.481982 27.0488688,22.8468468 27.0488688,22.1081081 Z" id="Shape"></path>
                </g>
            </g>
        </g>
    </g>
</svg>