<?xml version="1.0" encoding="UTF-8"?>
<svg width="64px" height="64px" viewBox="0 0 64 64" version="1.1" xmlns="http://www.w3.org/2000/svg" xmlns:xlink="http://www.w3.org/1999/xlink">
    <title>7A7E605E-14E3-421B-A4C5-EB78FAB21887</title>
    <g id="Page-1" stroke="none" stroke-width="1" fill="none" fill-rule="evenodd">
        <g id="weather-icon-v1" transform="translate(-598.000000, -482.000000)">
            <g id="icon-weather-freezing-rain" transform="translate(598.000000, 482.000000)">
                <rect id="Rectangle" fill-opacity="0" fill="#000000" x="0" y="0" width="64" height="64"></rect>
                <g id="" transform="translate(5.000000, 5.000000)" fill="#F05A23" fill-rule="nonzero">
                    <path d="M0,25.2366836 C0,28.7883279 1.20950226,31.8397406 3.62850679,34.3909217 C6.04751131,36.9421028 9,38.3010653 12.4859729,38.4678092 C12.7791855,38.4678092 12.9257919,38.3177397 12.9257919,38.0176007 L12.9257919,34.4409449 C12.9257919,34.1408059 12.7791855,33.9907365 12.4859729,33.9907365 C10.2542986,33.8740157 8.35656109,32.9652617 6.79276018,31.2644743 C5.22895928,29.5636869 4.44705882,27.5544233 4.44705882,25.2366836 C4.44705882,23.0356647 5.1800905,21.1181102 6.64615385,19.4840204 C8.11221719,17.8499305 9.92850679,16.8994905 12.0950226,16.6327003 L13.4877828,16.5576656 C13.8298643,16.5576656 14.000905,16.3909217 14.000905,16.057434 L14.1475113,14.631774 C14.4244344,11.7471051 15.6176471,9.33348773 17.7271493,7.39092172 C19.8366516,5.44835572 22.3167421,4.47707272 25.1674208,4.47707272 C28.00181,4.47707272 30.4778281,5.44835572 32.5954751,7.39092172 C34.7131222,9.33348773 35.918552,11.7471051 36.2117647,14.631774 L36.4072398,16.1824919 C36.4072398,16.4826308 36.561991,16.6327003 36.8714932,16.6327003 L41.0742081,16.6327003 C43.3873303,16.6327003 45.3909502,17.483094 47.0850679,19.1838814 C48.7791855,20.8846688 49.6262443,22.9022696 49.6262443,25.2366836 C49.6262443,27.5544233 48.8402715,29.5636869 47.2683258,31.2644743 C45.6963801,32.9652617 43.8027149,33.8740157 41.5873303,33.9907365 C41.2452489,33.9907365 41.0742081,34.1408059 41.0742081,34.4409449 L41.0742081,38.0176007 C41.0742081,38.3177397 41.2452489,38.4678092 41.5873303,38.4678092 C43.8515837,38.4011116 45.9366516,37.7674849 47.8425339,36.5669291 C49.7484163,35.3663733 51.2511312,33.7614636 52.3506787,31.7522001 C53.4502262,29.7429365 54,27.5710977 54,25.2366836 C54,22.8522464 53.4217195,20.655396 52.2651584,18.6461325 C51.1085973,16.6368689 49.5366516,15.0528022 47.5493213,13.8939324 C45.561991,12.7350625 43.4036199,12.1556276 41.0742081,12.1556276 L40.2434389,12.1556276 C39.3963801,8.58730894 37.5678733,5.66929134 34.7579186,3.4015748 C31.9479638,1.13385827 28.7511312,0 25.1674208,0 C21.5022624,0 18.2443439,1.16303844 15.3936652,3.48911533 C12.5429864,5.81519222 10.718552,8.79573877 9.92036199,12.430755 C7.03710407,13.1144048 4.66289593,14.652617 2.79773756,17.0453914 C0.932579186,19.4381658 0,22.1685966 0,25.2366836 Z M14.1963801,44.4455767 C14.440724,45.0125058 14.839819,45.4210283 15.3936652,45.671144 C15.9149321,45.9379342 16.4565611,45.9546086 17.018552,45.7211672 C17.580543,45.4877258 17.9674208,45.0875405 18.1791855,44.5206114 C18.439819,43.9370079 18.460181,43.3659101 18.2402715,42.8073182 C18.020362,42.2487263 17.6253394,41.8610468 17.0552036,41.6442798 C16.5339367,41.3608152 16.0004525,41.3358036 15.4547511,41.569245 C14.9090498,41.8026864 14.5058824,42.2195461 14.2452489,42.819824 C14.000905,43.253358 13.9846154,43.7952756 14.1963801,44.4455767 Z M15.8334842,36.9170912 C15.8334842,37.3339509 15.9678733,37.7383048 16.2366516,38.1301528 C16.5054299,38.5220009 16.9085973,38.8096341 17.4461538,38.9930523 C17.9511312,39.2931913 18.4886878,39.3056971 19.0588235,39.0305697 C19.6289593,38.7554423 20.0117647,38.2260306 20.2072398,37.4423344 L22.5529412,28.4131542 C22.7158371,27.7461788 22.6466063,27.1500695 22.3452489,26.6248263 C22.0438914,26.0995831 21.5837104,25.7786012 20.9647059,25.6618805 C20.7529412,25.6118573 20.5411765,25.5868458 20.3294118,25.5868458 C19.9058824,25.5868458 19.4945701,25.7202409 19.0954751,25.987031 C18.6963801,26.2538212 18.4153846,26.6456693 18.2524887,27.1625753 L15.9556561,36.216767 C15.8742081,36.6002779 15.8334842,36.8337193 15.8334842,36.9170912 Z M20.6959276,51.8239926 C20.6959276,52.1408059 20.7447964,52.3992589 20.8425339,52.5993516 C21.0705882,53.1829551 21.4615385,53.5831403 22.0153846,53.7999074 C22.2597285,53.9333025 22.5447964,54 22.8705882,54 C23.0334842,54 23.2941176,53.9499768 23.6524887,53.8499305 C24.2226244,53.6331635 24.6339367,53.2329782 24.8864253,52.6493747 C25.138914,52.0657712 25.1348416,51.4821677 24.8742081,50.8985642 C24.6135747,50.3149606 24.2266968,49.9064382 23.7135747,49.6729968 C23.2004525,49.4395553 22.6588235,49.4395553 22.0886878,49.6729968 C21.6,49.8897638 21.2457014,50.2065771 21.0257919,50.6234368 C20.8058824,51.0402964 20.6959276,51.4404817 20.6959276,51.8239926 Z M22.60181,44.8707735 C22.60181,45.8545623 23.1475113,46.5048634 24.238914,46.8216767 C24.5321267,46.8883742 24.7438914,46.921723 24.8742081,46.921723 C25.2651584,46.921723 25.599095,46.8550255 25.8760181,46.7216304 C26.4135747,46.5048634 26.7800905,45.9962946 26.9755656,45.195924 L31.3248869,28.4131542 C31.4877828,27.7795276 31.4348416,27.2042612 31.1660633,26.6873553 C30.8972851,26.1704493 30.4696833,25.8286244 29.8832579,25.6618805 C29.6714932,25.6118573 29.4352941,25.5868458 29.1746606,25.5868458 C28.7511312,25.5868458 28.3316742,25.7202409 27.9162896,25.987031 C27.500905,26.2538212 27.2443439,26.6456693 27.1466063,27.1625753 L22.6995475,44.070403 C22.6343891,44.4372395 22.60181,44.7040296 22.60181,44.8707735 Z M31.5447964,43.6452061 C31.5447964,43.9620195 31.6099548,44.245484 31.7402715,44.4955998 C31.9520362,45.0125058 32.3348416,45.4043539 32.8886878,45.671144 C33.1819005,45.7878648 33.4832579,45.8462251 33.7927602,45.8462251 C33.9556561,45.8462251 34.2162896,45.7962019 34.5746606,45.6961556 C35.1285068,45.4793886 35.5276018,45.0875405 35.7719457,44.5206114 C35.9674208,43.9370079 35.959276,43.3784159 35.7475113,42.8448356 C35.5357466,42.3112552 35.1692308,41.9110699 34.6479638,41.6442798 C34.0615385,41.3608152 33.4954751,41.3358036 32.9497738,41.569245 C32.4040724,41.8026864 32.000905,42.2195461 31.7402715,42.819824 C31.6099548,43.0699398 31.5447964,43.3450672 31.5447964,43.6452061 Z M33.4262443,36.7920333 C33.4262443,37.1755442 33.5647059,37.5757295 33.841629,37.9925892 C34.118552,38.4094488 34.5095023,38.7012506 35.0144796,38.8679944 C35.4217195,38.9513664 35.6579186,38.9930523 35.7230769,38.9930523 C35.9674208,38.9930523 36.2850679,38.9013432 36.6760181,38.717925 C37.1972851,38.4678092 37.5475113,38.0009264 37.7266968,37.3172765 L40.0723982,28.4131542 C40.121267,27.9629458 40.1457014,27.7295044 40.1457014,27.71283 C40.1457014,27.2959704 40.0113122,26.8874479 39.7425339,26.4872626 C39.4737557,26.0870774 39.078733,25.81195 38.5574661,25.6618805 C38.3294118,25.6118573 38.1013575,25.5868458 37.8733032,25.5868458 C37.4497738,25.5868458 37.0425339,25.7160723 36.6515837,25.9745252 C36.2606335,26.2329782 35.9918552,26.6289949 35.8452489,27.1625753 L33.4995475,36.1167207 L33.4262443,36.7920333 Z" id="Shape"></path>
                </g>
            </g>
        </g>
    </g>
</svg>