<?xml version="1.0" encoding="UTF-8"?>
<svg width="64px" height="64px" viewBox="0 0 64 64" version="1.1" xmlns="http://www.w3.org/2000/svg" xmlns:xlink="http://www.w3.org/1999/xlink">
    <title>92E17CD9-30A9-42FB-9228-AB61A97EBE3D</title>
    <g id="Page-1" stroke="none" stroke-width="1" fill="none" fill-rule="evenodd">
        <g id="weather-icon-v1" transform="translate(-364.000000, -189.000000)">
            <g id="icon-weather-light-clouds" transform="translate(364.000000, 189.000000)">
                <rect id="Rectangle" fill-opacity="0" fill="#000000" x="0" y="0" width="64" height="64"></rect>
                <g id="Group-2" transform="translate(5.000000, 14.000000)" stroke="#F05A23" stroke-width="4">
                    <path d="M27,3.33853826 C27.3550729,2.71546405 27.6264282,2.33904763 27.814066,2.209289 C31.0696608,-0.0420777729 34.4364659,-0.572760082 37.9144813,0.617242075 C41.6931825,1.91012377 43.8370656,4.71906521 44.3461308,9.04406639 C50.2221584,8.80596593 53.4156729,10.9099356 53.9266741,15.3559755 C54.3983175,19.4595768 52.5946992,22.5815866 48.5158193,24.7220049 C48.2889023,24.8410811 47.57677,24.9337461 46.3794224,25" id="Path-3"></path>
                    <path d="M35.5046103,35 C40.4181233,31.9776477 42.5439733,28.2227656 41.8821603,23.7353536 C41.2203473,19.2479415 37.7121739,16.785025 31.3576399,16.3466039 C29.1266913,9.44886797 25.277861,6 19.8111487,6 C14.3444365,6 10.4775348,9.44886797 8.21044364,16.3466039 C3.70869088,17.4973885 1.05054532,19.960305 0.236006954,23.7353536 C-0.578531408,27.5104021 0.715361993,30.6179228 4.11768716,33.0579158" id="Path-4"></path>
                </g>
            </g>
        </g>
    </g>
</svg>