<?xml version="1.0" encoding="UTF-8"?>
<svg width="64px" height="64px" viewBox="0 0 64 64" version="1.1" xmlns="http://www.w3.org/2000/svg" xmlns:xlink="http://www.w3.org/1999/xlink">
    <title>C2F6B505-D42D-44C9-BE10-7BE8D031FFC2</title>
    <g id="Page-1" stroke="none" stroke-width="1" fill="none" fill-rule="evenodd">
        <g id="weather-icon-v1" transform="translate(-598.000000, -189.000000)">
            <g id="icon-weather-partly-cloud" transform="translate(598.000000, 189.000000)">
                <rect id="Rectangle" fill-opacity="0" fill="#000000" x="0" y="0" width="64" height="64"></rect>
                <g id="" transform="translate(5.000000, 14.000000)" fill="#F05A23" fill-rule="nonzero">
                    <path d="M0,25.4594595 C0,23.003861 0.751898734,20.8223938 2.2556962,18.9150579 C3.75949367,17.007722 5.68860759,15.7837838 8.04303797,15.2432432 C8.66582278,12.3397683 10.1088608,9.96525097 12.3721519,8.11969112 C14.635443,6.27413127 17.2405063,5.35135135 20.1873418,5.35135135 C23.0582278,5.35135135 25.621519,6.25096525 27.8772152,8.05019305 C30.1329114,9.84942085 31.5949367,12.1544402 32.2632911,14.965251 L32.9240506,14.965251 C35.7797468,14.965251 38.2177215,15.988417 40.2379747,18.034749 C42.2582278,20.0810811 43.2683544,22.5559846 43.2683544,25.4594595 C43.2683544,28.3629344 42.2582278,30.8455598 40.2379747,32.9073359 C38.2177215,34.969112 35.7797468,36 32.9240506,36 L10.3670886,36 C8.96962025,36 7.62911392,35.7220077 6.34556962,35.1660232 C5.06202532,34.6100386 3.95696203,33.8610039 3.03037975,32.9189189 C2.10379747,31.976834 1.36708861,30.8532819 0.820253165,29.5482625 C0.273417722,28.2432432 0,26.8803089 0,25.4594595 Z M3.53164557,25.4594595 C3.53164557,27.3436293 4.2,28.96139 5.53670886,30.3127413 C6.87341772,31.6640927 8.4835443,32.3397683 10.3670886,32.3397683 L32.9240506,32.3397683 C34.8075949,32.3397683 36.4177215,31.6640927 37.7544304,30.3127413 C39.0911392,28.96139 39.7594937,27.3436293 39.7594937,25.4594595 C39.7594937,23.5752896 39.0911392,21.96139 37.7544304,20.6177606 C36.4177215,19.2741313 34.8075949,18.6023166 32.9240506,18.6023166 L29.5518987,18.6023166 C29.3088608,18.6023166 29.1873418,18.4787645 29.1873418,18.2316602 L29.0278481,17.027027 C28.7848101,14.6949807 27.8240506,12.7606178 26.1455696,11.2239382 C24.4670886,9.68725869 22.4810127,8.91891892 20.1873418,8.91891892 C17.8936709,8.91891892 15.9,9.69111969 14.2063291,11.2355212 C12.5126582,12.7799228 11.5594937,14.7104247 11.3468354,17.027027 L11.1873418,18.0694981 C11.1873418,18.3166023 11.0582278,18.4401544 10.8,18.4401544 L9.70632911,18.6023166 C7.95949367,18.7567568 6.49367089,19.4903475 5.30886076,20.8030888 C4.12405063,22.1158301 3.53164557,23.6679537 3.53164557,25.4594595 Z M25.0405063,3.91505792 C24.7974684,4.14671815 24.8582278,4.31660232 25.2227848,4.42471042 C26.2708861,4.88803089 27.1443038,5.34362934 27.843038,5.79150579 C28.1164557,5.86872587 28.2987342,5.84555985 28.3898734,5.72200772 C29.8632911,4.3011583 31.5797468,3.59073359 33.5392405,3.59073359 C35.4987342,3.59073359 37.1962025,4.25868726 38.6316456,5.59459459 C40.0670886,6.93050193 40.8683544,8.57915058 41.035443,10.5405405 L41.2632911,12.1158301 L44.7037975,12.1158301 C46.2835443,12.1158301 47.643038,12.6911197 48.7822785,13.8416988 C49.921519,14.992278 50.4911392,16.3629344 50.4911392,17.953668 C50.4911392,19.4362934 49.9898734,20.7258687 48.9873418,21.8223938 C47.9848101,22.9189189 46.7468354,23.5521236 45.2734177,23.7220077 C45.0303797,23.7220077 44.9088608,23.8532819 44.9088608,24.1158301 L44.9088608,26.9189189 C44.9088608,27.1814672 45.0303797,27.3127413 45.2734177,27.3127413 C47.7189873,27.1583012 49.7848101,26.1776062 51.4708861,24.3706564 C53.156962,22.5637066 54,20.4247104 54,17.953668 C54,15.3436293 53.0924051,13.1158301 51.2772152,11.2702703 C49.4620253,9.42471042 47.2708861,8.5019305 44.7037975,8.5019305 L44.3392405,8.5019305 C43.7012658,6.03088803 42.3683544,3.996139 40.3405063,2.3976834 C38.3126582,0.799227799 36.0455696,0 33.5392405,0 C30.1063291,0 27.2734177,1.30501931 25.0405063,3.91505792 Z" id="Shape"></path>
                </g>
            </g>
        </g>
    </g>
</svg>