<?xml version="1.0" encoding="UTF-8"?>
<svg width="64px" height="64px" viewBox="0 0 64 64" version="1.1" xmlns="http://www.w3.org/2000/svg" xmlns:xlink="http://www.w3.org/1999/xlink">
    <title>B6DB85A7-8151-4E43-B94B-3D84791742D7</title>
    <g id="Page-1" stroke="none" stroke-width="1" fill="none" fill-rule="evenodd">
        <g id="weather-icon-v1" transform="translate(-128.000000, -326.000000)">
            <g id="icon-weather-rain-and-snow" transform="translate(128.000000, 326.000000)">
                <rect id="Rectangle" fill-opacity="0" fill="#000000" x="0" y="0" width="64" height="64"></rect>
                <g id="" transform="translate(5.000000, 5.000000)" fill="#F05A23" fill-rule="nonzero">
                    <path d="M0,25.037037 C0,28.5102881 1.21412404,31.5061728 3.64237211,34.0246914 C6.07062019,36.5432099 9.01222273,37.8600823 12.4671797,37.9753086 C12.7768221,37.9753086 12.9316433,37.8271605 12.9316433,37.5308642 L12.9316433,34.0246914 C12.9316433,33.7119342 12.7768221,33.5555556 12.4671797,33.5555556 C10.2670892,33.4403292 8.37664101,32.5473251 6.79583522,30.8765432 C5.21502943,29.2057613 4.42462653,27.2592593 4.42462653,25.037037 C4.42462653,22.8312757 5.16206428,20.909465 6.63693979,19.2716049 C8.1118153,17.6337449 9.93300136,16.7242798 12.100498,16.5432099 L13.4694432,16.345679 C13.7953825,16.345679 13.9583522,16.1893004 13.9583522,15.8765432 L14.1539158,14.5679012 C14.4146673,11.6872428 15.6002716,9.27572016 17.7107288,7.33333333 C19.8211861,5.3909465 22.3105478,4.41975309 25.1788139,4.41975309 C27.9981892,4.41975309 30.4671797,5.38271605 32.5857854,7.30864198 C34.7043911,9.2345679 35.9185152,11.6131687 36.2281575,14.4444444 L36.3992757,15.9753086 C36.3992757,16.2880658 36.5622454,16.4444444 36.8881847,16.4444444 L41.0683567,16.4444444 C43.41512,16.4444444 45.4277954,17.2921811 47.106383,18.9876543 C48.7849706,20.6831276 49.6242644,22.6995885 49.6242644,25.037037 C49.6242644,27.2592593 48.8379357,29.2057613 47.2652784,30.8765432 C45.6926211,32.5473251 43.7980987,33.4403292 41.5817112,33.5555556 C41.2394749,33.5555556 41.0683567,33.7119342 41.0683567,34.0246914 L41.0683567,37.5308642 C41.0683567,37.8271605 41.2394749,37.9753086 41.5817112,37.9753086 C45.0529651,37.8600823 47.9904934,36.5473251 50.3942961,34.037037 C52.7980987,31.526749 54,28.526749 54,25.037037 C54,22.6831276 53.4214577,20.5061728 52.264373,18.5061728 C51.1072884,16.5061728 49.5346311,14.9259259 47.5464011,13.7654321 C45.5581711,12.6049383 43.398823,12.0246914 41.0683567,12.0246914 L40.2616569,12.0246914 C39.3979176,8.50205761 37.5645088,5.61728395 34.7614305,3.37037037 C31.9583522,1.12345679 28.7641467,0 25.1788139,0 C21.5119964,0 18.252603,1.15226337 15.4006338,3.45679012 C12.5486646,5.76131687 10.7234043,8.69958848 9.92485287,12.2716049 C6.99139882,13.0288066 4.60389316,14.5802469 2.7623359,16.9259259 C0.920778633,19.2716049 0,21.9753086 0,25.037037 Z M14.1050249,43.5308642 C14.1050249,43.9753086 14.2476234,44.4197531 14.5328203,44.8641975 C14.8180172,45.308642 15.2295156,45.6131687 15.7673155,45.7777778 C16.3703033,45.9588477 16.9244002,45.9259259 17.4296062,45.6790123 C17.9348121,45.4320988 18.2770484,44.9382716 18.4563151,44.1975309 L18.8229968,42.5925926 C18.9533726,42 18.8718877,41.4444444 18.5785423,40.9259259 C18.2851969,40.4074074 17.8370303,40.0576132 17.2340426,39.8765432 C16.6473517,39.6954733 16.0891806,39.7613169 15.5595292,40.0740741 C15.0298778,40.3868313 14.6835672,40.8559671 14.5205976,41.4814815 L14.1539158,43.037037 C14.1213219,43.1358025 14.1050249,43.3004115 14.1050249,43.5308642 Z M16.0851064,35.9012346 C16.0851064,36.4609053 16.3051154,36.962963 16.7451335,37.4074074 C17.1525577,37.8518519 17.6414667,38.0740741 18.2118606,38.0740741 C18.8311453,38.0740741 19.3526483,37.8641975 19.7763694,37.4444444 C20.2000905,37.0246914 20.4119511,36.5102881 20.4119511,35.9012346 C20.4119511,35.2921811 20.2000905,34.7777778 19.7763694,34.3580247 C19.3526483,33.9382716 18.8311453,33.7283951 18.2118606,33.7283951 C17.6088728,33.7283951 17.1036668,33.9341564 16.6962426,34.345679 C16.2888185,34.7572016 16.0851064,35.2757202 16.0851064,35.9012346 Z M17.6740607,29.9012346 C17.6414667,30.3127572 17.7596197,30.7119342 18.0285197,31.0987654 C18.2974196,31.4855967 18.7170665,31.7695473 19.2874604,31.9506173 C19.8252603,32.1152263 20.3630602,32.0534979 20.9008601,31.7654321 C21.43866,31.4773663 21.7971933,31.0288066 21.9764599,30.4197531 L22.7098234,28.0493827 C22.9053871,27.4074074 22.8483477,26.8353909 22.5387053,26.3333333 C22.2290629,25.8312757 21.7564509,25.4897119 21.1208692,25.308642 C20.5504753,25.127572 20.0004527,25.1851852 19.4708013,25.4814815 C18.9411498,25.7777778 18.5866908,26.2139918 18.4074242,26.7901235 L17.7718425,29.2098765 C17.7718425,29.2592593 17.7555455,29.3621399 17.7229516,29.5185185 C17.6903576,29.6748971 17.6740607,29.8024691 17.6740607,29.9012346 Z M20.7052965,51.7530864 C20.7052965,52.2139918 20.8397465,52.6502058 21.1086464,53.0617284 C21.3775464,53.473251 21.7971933,53.7613169 22.3675871,53.9259259 C22.5794477,53.9753086 22.7994568,54 23.0276143,54 C24.1358081,54 24.8202807,53.4650206 25.0810321,52.3950617 L25.4477139,50.8395062 C25.6106836,50.1646091 25.5373472,49.563786 25.2277048,49.037037 C24.9180625,48.5102881 24.4617474,48.1893004 23.8587596,48.0740741 C23.3046627,47.8930041 22.7587144,47.9547325 22.2209144,48.2592593 C21.6831145,48.563786 21.3245813,49.0123457 21.1453146,49.6049383 L20.7786329,51.1604938 C20.729742,51.3909465 20.7052965,51.5884774 20.7052965,51.7530864 Z M22.7342689,44.0987654 C22.7342689,44.6748971 22.954278,45.1851852 23.3942961,45.6296296 C23.8180172,46.0576132 24.3150747,46.2716049 24.8854685,46.2716049 C25.5047533,46.2716049 26.0181077,46.0658436 26.4255319,45.654321 C26.8329561,45.2427984 27.0366682,44.7242798 27.0366682,44.0987654 C27.0366682,43.4897119 26.8329561,42.9794239 26.4255319,42.5679012 C26.0181077,42.1563786 25.5047533,41.9506173 24.8854685,41.9506173 C24.2661838,41.9506173 23.7528293,42.1563786 23.3454052,42.5679012 C22.937981,42.9794239 22.7342689,43.4897119 22.7342689,44.0987654 Z M24.3721141,38.1234568 C24.3395201,38.5185185 24.4535989,38.9300412 24.7143504,39.3580247 C24.9751019,39.7860082 25.3662291,40.0493827 25.887732,40.1481481 C26.4907198,40.3127572 27.0448167,40.2633745 27.5500226,40 C28.0552286,39.7366255 28.4137619,39.2427984 28.6256225,38.5185185 L29.3345405,36.1481481 C29.5138072,35.5720165 29.4526935,35.0205761 29.1511996,34.4938272 C28.8497057,33.9670782 28.3893164,33.6131687 27.7700317,33.4320988 C27.1996378,33.2510288 26.645541,33.3209877 26.1077411,33.6419753 C25.5699411,33.962963 25.2114079,34.4279835 25.0321412,35.037037 L24.4454504,37.4074074 C24.3965595,37.6213992 24.3721141,37.8600823 24.3721141,38.1234568 Z M31.5590765,43.7777778 C31.5590765,44.2057613 31.6935265,44.6255144 31.9624264,45.037037 C32.2313264,45.4485597 32.6346763,45.7366255 33.1724762,45.9012346 C33.2539611,45.9012346 33.3721141,45.9176955 33.5269353,45.9506173 C33.6817565,45.9835391 33.7999095,46 33.8813943,46 C34.9406971,46 35.6007243,45.4238683 35.8614758,44.2716049 L36.2281575,42.691358 C36.4074242,42.1316872 36.3503848,41.5802469 36.0570394,41.037037 C35.763694,40.4938272 35.3236759,40.1316872 34.7369851,39.9506173 C34.0851064,39.7860082 33.4943413,39.8559671 32.9646899,40.1604938 C32.4350385,40.4650206 32.0805794,40.9300412 31.9013128,41.5555556 L31.6568583,43.1111111 C31.6568583,43.1769547 31.6405613,43.2839506 31.6079674,43.4320988 C31.5753735,43.5802469 31.5590765,43.6954733 31.5590765,43.7777778 Z M33.4902671,36 C33.4902671,36.5925926 33.7102761,37.0946502 34.1502943,37.5061728 C34.5414215,37.9341564 35.0384789,38.1481481 35.6414667,38.1481481 C36.2607515,38.1481481 36.7741059,37.9423868 37.1815301,37.5308642 C37.5889543,37.1193416 37.7926664,36.6090535 37.7926664,36 C37.7926664,35.3744856 37.5889543,34.8559671 37.1815301,34.4444444 C36.7741059,34.0329218 36.2607515,33.8271605 35.6414667,33.8271605 C35.022182,33.8271605 34.5088275,34.0329218 34.1014033,34.4444444 C33.6939792,34.8559671 33.4902671,35.3744856 33.4902671,36 Z M35.0792214,29.9012346 C35.0792214,30.345679 35.2218198,30.7695473 35.5070167,31.1728395 C35.7922137,31.5761317 36.2200091,31.8600823 36.7904029,32.0246914 C36.8392938,32.0246914 36.9452241,32.0411523 37.1081938,32.0740741 C37.2711634,32.1069959 37.3933907,32.1234568 37.4748755,32.1234568 C37.735627,32.1234568 38.0452694,32.0411523 38.4038026,31.8765432 C38.9578995,31.5802469 39.3164328,31.1193416 39.4794024,30.4938272 L40.1149842,28.1234568 C40.2779538,27.5308642 40.212766,26.9753086 39.9194206,26.4567901 C39.6260751,25.9382716 39.186057,25.5884774 38.5993662,25.4074074 C37.9963785,25.2263374 37.4422816,25.2757202 36.9370756,25.5555556 C36.4318696,25.8353909 36.0896333,26.2798354 35.9103667,26.8888889 L35.1770032,29.2839506 C35.1770032,29.3497942 35.1607062,29.4526749 35.1281123,29.5925926 C35.0955183,29.7325103 35.0792214,29.8353909 35.0792214,29.9012346 Z" id="Shape"></path>
                </g>
            </g>
        </g>
    </g>
</svg>