<?xml version="1.0" encoding="UTF-8"?>
<svg width="64px" height="64px" viewBox="0 0 64 64" version="1.1" xmlns="http://www.w3.org/2000/svg" xmlns:xlink="http://www.w3.org/1999/xlink">
    <title>3787A8B4-4B6B-4EC6-8C84-6BB324D52CAC</title>
    <g id="Page-1" stroke="none" stroke-width="1" fill="none" fill-rule="evenodd">
        <g id="weather-icon-v1" transform="translate(-1069.000000, -189.000000)">
            <g id="icon-weather-rain" transform="translate(1069.000000, 189.000000)">
                <rect id="Rectangle" fill-opacity="0" fill="#000000" x="0" y="0" width="64" height="64"></rect>
                <g id="" transform="translate(5.000000, 5.000000)" fill="#F05A23" fill-rule="nonzero">
                    <path d="M0,25.0257129 C0,21.9862864 0.936227951,19.281362 2.80868385,16.9109397 C4.68113976,14.5405174 7.05020353,13.0166745 9.91587517,12.3394109 C10.7299864,8.73835125 12.5617368,5.78151784 15.4111262,3.46891071 C18.2605156,1.15630357 21.5169607,0 25.1804613,0 C28.7625509,0 31.9579376,1.12739598 34.7666214,3.38218794 C37.5753053,5.6369799 39.4029851,8.53186847 40.2496608,12.0668537 L41.0800543,12.0668537 C43.4084125,12.0668537 45.5658073,12.6408758 47.5522388,13.7889201 C49.5386703,14.9369643 51.109905,16.5062334 52.265943,18.4967274 C53.421981,20.4872214 54,22.6635499 54,25.0257129 C54,27.3383201 53.4504749,29.4898707 52.3514247,31.4803647 C51.2523745,33.4708587 49.7503392,35.0607761 47.8453189,36.2501169 C45.9402985,37.4394577 43.8561737,38.0671653 41.5929444,38.1332398 C41.2510176,38.1332398 41.0800543,37.9845722 41.0800543,37.687237 L41.0800543,34.1687705 C41.0800543,33.8549166 41.2510176,33.6979897 41.5929444,33.6979897 C43.807327,33.5823594 45.7001357,32.6820944 47.2713704,30.997195 C48.8426052,29.3122955 49.6282225,27.3218015 49.6282225,25.0257129 C49.6282225,22.7296244 48.7815468,20.7350008 47.0881954,19.041842 C45.394844,17.3486832 43.3921303,16.5021038 41.0800543,16.5021038 L36.8792402,16.5021038 C36.5698779,16.5021038 36.4151967,16.3534362 36.4151967,16.056101 L36.21981,14.5198691 C35.92673,11.6621474 34.7177748,9.27107683 32.5929444,7.34665732 C30.468114,5.42223781 27.9972863,4.46002805 25.1804613,4.46002805 C22.3310719,4.46002805 19.8521031,5.42223781 17.743555,7.34665732 C15.6350068,9.27107683 14.4504749,11.6621474 14.1899593,14.5198691 L13.9945726,15.9322113 C13.9945726,16.2625838 13.8236092,16.42777 13.4816825,16.42777 L12.1139756,16.5021038 C9.94843962,16.7664017 8.12890095,17.7079632 6.65535957,19.3267882 C5.18181818,20.9456132 4.44504749,22.8452548 4.44504749,25.0257129 C4.44504749,27.3218015 5.2265943,29.3122955 6.78968792,30.997195 C8.35278155,32.6820944 10.2496608,33.5823594 12.4803256,33.6979897 C12.7734057,33.6979897 12.9199457,33.8549166 12.9199457,34.1687705 L12.9199457,37.687237 C12.9199457,37.9845722 12.7734057,38.1332398 12.4803256,38.1332398 C8.99592944,37.9680536 6.04477612,36.6217859 3.62686567,34.0944367 C1.20895522,31.5670874 0,28.5441795 0,25.0257129 Z M13.9457259,42.6923796 C13.9457259,42.5767493 13.9782904,42.4033037 14.0434193,42.172043 L18.2930801,26.9336138 C18.4559023,26.4215365 18.7367707,26.0333489 19.1356852,25.769051 C19.5345997,25.504753 19.9375848,25.372604 20.3446404,25.372604 C20.5237449,25.372604 20.7354138,25.397382 20.9796472,25.4469378 C21.5983718,25.5625682 22.0664858,25.8846813 22.3839891,26.4132772 C22.7014925,26.9418731 22.770692,27.5282842 22.5915875,28.1725105 L18.3419267,43.311828 C18.0162822,44.4350943 17.2998643,44.9967274 16.192673,44.9967274 C16.0949796,44.9967274 15.9972863,44.9802088 15.8995929,44.9471716 C15.7530529,44.8976157 15.6635007,44.8728378 15.6309362,44.8728378 C15.0610583,44.7076516 14.6377205,44.414446 14.3609227,43.9932211 C14.0841248,43.5719963 13.9457259,43.1383824 13.9457259,42.6923796 Z M20.7842605,50.1257597 L27.1343284,26.9336138 C27.2483039,26.4215365 27.5088195,26.0333489 27.9158752,25.769051 C28.3229308,25.504753 28.7462687,25.372604 29.1858887,25.372604 C29.4138399,25.372604 29.6499322,25.397382 29.8941655,25.4469378 C30.4640434,25.612124 30.8873813,25.9548855 31.1641791,26.4752221 C31.4409769,26.9955587 31.4979647,27.5613215 31.3351425,28.1725105 L25.009498,51.3894343 C24.9118046,51.8354371 24.6594301,52.2153654 24.2523745,52.5292193 C23.8453189,52.8430731 23.4056988,53 22.9335142,53 C22.6892809,53 22.4694708,52.9587034 22.2740841,52.8761103 C21.7530529,52.7439614 21.3052917,52.3970703 20.9308005,51.8354371 C20.6377205,51.3729157 20.5888738,50.8030232 20.7842605,50.1257597 Z M31.5305292,42.7667134 C31.5305292,42.6676017 31.5630936,42.4693782 31.6282225,42.172043 L35.8778833,26.9336138 C36.0244233,26.4215365 36.2890095,26.0333489 36.6716418,25.769051 C37.0542741,25.504753 37.4572592,25.372604 37.880597,25.372604 C38.0922659,25.372604 38.3202171,25.397382 38.5644505,25.4469378 C39.1017639,25.5956054 39.504749,25.8681627 39.7734057,26.2646096 C40.0420624,26.6610566 40.1763908,27.0740221 40.1763908,27.5035063 C40.1763908,27.5860994 40.1601085,27.7058594 40.1275441,27.8627863 C40.0949796,28.0197133 40.0786974,28.1229547 40.0786974,28.1725105 L35.8290366,43.311828 C35.7313433,43.8239053 35.4871099,44.2327412 35.0963365,44.5383357 C34.7055631,44.8439302 34.265943,44.9967274 33.7774763,44.9967274 L33.1424695,44.8728378 C32.6214383,44.7241702 32.2225237,44.4392239 31.9457259,44.0179991 C31.6689281,43.5967742 31.5305292,43.179679 31.5305292,42.7667134 Z" id="Shape"></path>
                </g>
            </g>
        </g>
    </g>
</svg>