<?xml version="1.0" encoding="UTF-8"?>
<svg width="64px" height="64px" viewBox="0 0 64 64" version="1.1" xmlns="http://www.w3.org/2000/svg" xmlns:xlink="http://www.w3.org/1999/xlink">
    <title>6F8B70CC-5FB9-4A7A-A0D4-10BE16D705A3</title>
    <g id="Page-1" stroke="none" stroke-width="1" fill="none" fill-rule="evenodd">
        <g id="weather-icon-v1" transform="translate(-598.000000, -330.000000)">
            <g id="icon-weather-rain-shower" transform="translate(598.000000, 330.000000)">
                <rect id="Rectangle" fill-opacity="0" fill="#000000" x="0" y="0" width="64" height="64"></rect>
                <g id="" transform="translate(5.000000, 5.000000)" fill="#F05A23" fill-rule="nonzero">
                    <path d="M0,25.3780037 C0,22.3003697 0.941388638,19.5637708 2.82416592,17.168207 C4.70694319,14.7726433 7.11722272,13.2338262 10.0550045,12.551756 C10.8178539,8.89186691 12.6113616,5.8849353 15.4355275,3.53096118 C18.2596934,1.17698706 21.5058611,0 25.1740307,0 C28.7935077,0 32.0112714,1.13123845 34.8273219,3.39371534 C37.6433724,5.65619224 39.4815149,8.58410351 40.3417493,12.1774492 L41.2182146,12.1774492 C43.5554554,12.1774492 45.7060415,12.7638632 47.6699729,13.9366913 C49.6339044,15.1095194 51.1798918,16.7107209 52.3079351,18.7402957 C53.4359784,20.7698706 54,22.9824399 54,25.3780037 C54,28.9380776 52.8110911,31.9907579 50.4332732,34.5360444 C48.0554554,37.0813309 45.1379621,38.4121996 41.6807935,38.5286506 C41.3724076,38.5286506 41.2182146,38.3789279 41.2182146,38.0794824 L41.2182146,34.5110906 C41.2182146,34.2116451 41.3724076,34.0619224 41.6807935,34.0619224 C43.8719567,33.8789279 45.7466186,32.9514787 47.3047791,31.2795749 C48.8629396,29.607671 49.6420198,27.6404806 49.6420198,25.3780037 C49.6420198,22.9990758 48.8142471,20.9528651 47.1587015,19.2393715 C45.503156,17.525878 43.5229937,16.6691312 41.2182146,16.6691312 L36.9819657,16.6691312 C36.6735798,16.6691312 36.4869252,16.5110906 36.4220018,16.1950092 L36.2272317,14.6728281 C36.0486925,12.7763401 35.4440938,11.0586876 34.4134355,9.51987061 C33.3827773,7.9810536 32.0559062,6.77495379 30.4328224,5.90157116 C28.8097385,5.02818854 27.0568079,4.59149723 25.1740307,4.59149723 C22.3174031,4.59149723 19.8381425,5.56053604 17.7362489,7.49861368 C15.6343553,9.43669131 14.4454463,11.8530499 14.1695221,14.7476895 L13.9990983,16.1950092 C13.9990983,16.4445471 13.8611362,16.5693161 13.5852119,16.5693161 L12.2218215,16.7689464 C10.0306583,16.9519409 8.2006312,17.8669131 6.73174031,19.5138632 C5.26284941,21.1608133 4.52840397,23.1155268 4.52840397,25.3780037 C4.52840397,27.6903882 5.29531109,29.6825323 6.82912534,31.3544362 C8.36293959,33.0263401 10.2416592,33.9288355 12.465284,34.0619224 C12.77367,34.0619224 12.9278629,34.2116451 12.9278629,34.5110906 L12.9278629,38.0794824 C12.9278629,38.3789279 12.77367,38.5286506 12.465284,38.5286506 C10.761046,38.4454713 9.13796213,38.0462107 7.59603246,37.3308688 C6.0541028,36.6155268 4.72723174,35.6756007 3.6154193,34.5110906 C2.50360685,33.3465804 1.62308386,31.969963 0.973850316,30.3812384 C0.324616772,28.7925139 0,27.1247689 0,25.3780037 Z M14.0721371,43.3946396 C14.0721371,43.3114603 14.0883679,43.1950092 14.1208296,43.0452865 C14.1532913,42.8955638 14.1695221,42.7957486 14.1695221,42.745841 L14.8755636,40.0009242 C15.0541028,39.4020333 15.3990081,38.9487061 15.9102795,38.6409427 C16.4215509,38.3331793 16.9774572,38.2707948 17.5779982,38.4537893 C18.1623084,38.6367837 18.6086564,38.9902957 18.9170424,39.5143253 C19.2254283,40.0383549 19.2903517,40.6081331 19.1118124,41.2236599 L18.4788097,43.9186691 C18.1379621,45.0831793 17.4806132,45.6654344 16.5067628,45.6654344 C16.4418395,45.6654344 16.364743,45.6612754 16.2754734,45.6529575 C16.1862038,45.6446396 16.0888188,45.6321627 15.9833183,45.6155268 C15.8778179,45.5988909 15.792606,45.590573 15.7276826,45.590573 C15.1758341,45.4242144 14.7619477,45.12061 14.4860234,44.6797597 C14.2100992,44.2389094 14.0721371,43.810536 14.0721371,43.3946396 Z M17.5049594,30.5683919 C17.5049594,30.5018484 17.5171326,30.4020333 17.5414788,30.2689464 C17.5658251,30.1358595 17.5779982,30.0526802 17.5779982,30.0194085 L18.3570784,27.2245841 C18.5193868,26.7088725 18.7953111,26.3137708 19.1848512,26.0392791 C19.5743913,25.7647874 19.9801623,25.6275416 20.4021641,25.6275416 C20.4670875,25.6275416 20.5360685,25.6317006 20.6091073,25.6400185 C20.6821461,25.6483364 20.7633003,25.6608133 20.8525699,25.6774492 C20.9418395,25.694085 21.0108206,25.702403 21.0595131,25.702403 C21.6438233,25.8853974 22.0861136,26.2389094 22.3863841,26.762939 C22.6866546,27.2869686 22.7475203,27.8567468 22.5689811,28.4722736 L21.9359784,31.142329 C21.7574391,31.8743068 21.4084761,32.3941774 20.8890893,32.7019409 C20.3697024,33.0097043 19.8097385,33.0304991 19.2091975,32.7643253 C18.6411181,32.5979667 18.2150586,32.2985213 17.9310189,31.8659889 C17.6469793,31.4334566 17.5049594,31.0009242 17.5049594,30.5683919 Z M20.6943192,51.7292052 C20.6943192,51.6460259 20.71055,51.5337338 20.7430117,51.392329 C20.7754734,51.2509242 20.7917042,51.1469501 20.7917042,51.0804067 L21.5464382,48.435305 C21.7087466,47.8031423 22.0536519,47.3248614 22.5811542,47.0004621 C23.1086564,46.6760628 23.6726781,46.6053604 24.2732191,46.7883549 C24.8575293,46.9713494 25.2957619,47.3331793 25.587917,47.8738447 C25.8800721,48.4145102 25.9368801,48.9926063 25.7583408,49.6081331 L25.1009919,52.3780037 C24.8250676,53.4593346 24.135257,54 23.03156,54 C22.9017133,54 22.6907124,53.9667283 22.3985573,53.9001848 C21.8304779,53.8003697 21.4044184,53.530037 21.1203787,53.0891867 C20.836339,52.6483364 20.6943192,52.1950092 20.6943192,51.7292052 Z M24.1758341,39.0277264 C24.1758341,38.8780037 24.2082958,38.6534196 24.2732191,38.3539741 L24.9792606,35.6090573 C25.1577998,35.0101664 25.5108206,34.5568392 26.0383228,34.2490758 C26.5658251,33.9413124 27.1298467,33.8789279 27.7303877,34.0619224 C28.3146979,34.228281 28.7529306,34.573475 29.0450857,35.0975046 C29.3372408,35.6215342 29.3859333,36.1996303 29.1911632,36.831793 L28.5581605,39.4768946 C28.2335437,40.6746765 27.6086564,41.2735675 26.6834986,41.2735675 C26.5698828,41.2735675 26.3020739,41.2236599 25.8800721,41.1238447 C25.3119928,41.0073937 24.8859333,40.7453789 24.6018936,40.3378004 C24.3178539,39.9302218 24.1758341,39.4935305 24.1758341,39.0277264 Z M31.5040577,43.4944547 C31.5040577,43.3114603 31.528404,43.0951941 31.5770965,42.8456562 L32.3074842,40.2005545 C32.4860234,39.5683919 32.8390442,39.0901109 33.3665464,38.7657116 C33.8940487,38.4413124 34.4418395,38.3622921 35.0099188,38.5286506 C35.6104599,38.7116451 36.0689811,39.073475 36.3854824,39.6141405 C36.7019838,40.1548059 36.7790803,40.7162662 36.6167719,41.2985213 L35.8620379,44.1182994 C35.6023445,45.1996303 34.9206492,45.7402957 33.8169522,45.7402957 C33.5734896,45.7402957 33.3462579,45.715342 33.135257,45.6654344 C32.6158702,45.5656192 32.2182146,45.2952865 31.9422904,44.8544362 C31.6663661,44.413586 31.5202885,43.9602588 31.5040577,43.4944547 Z M35.0829576,30.8179298 C35.0829576,30.7347505 35.1235347,30.5018484 35.2046889,30.1192237 L35.9837692,27.3743068 C36.0811542,26.8086876 36.3327322,26.3886322 36.7385032,26.1141405 C37.1442741,25.8396488 37.5662759,25.7190388 38.0045086,25.7523105 C38.1181244,25.7356747 38.3291253,25.7606285 38.6375113,25.8271719 C39.2055906,25.9602588 39.6519387,26.3012939 39.9765555,26.8502773 C40.2849414,27.2994455 40.3498647,27.8733826 40.1713255,28.5720887 L39.5383228,31.3170055 C39.1974752,32.4648799 38.5401262,33.038817 37.5662759,33.038817 C37.4039675,33.038817 37.1118124,32.9889094 36.6898106,32.8890943 C36.154193,32.7227357 35.7524797,32.444085 35.4846709,32.0531423 C35.216862,31.6621996 35.0829576,31.2504621 35.0829576,30.8179298 Z" id="Shape"></path>
                </g>
            </g>
        </g>
    </g>
</svg>