<?xml version="1.0" encoding="UTF-8"?>
<svg width="64px" height="64px" viewBox="0 0 64 64" version="1.1" xmlns="http://www.w3.org/2000/svg" xmlns:xlink="http://www.w3.org/1999/xlink">
    <title>7B703D51-C438-40B3-A64B-E829398218A3</title>
    <g id="Page-1" stroke="none" stroke-width="1" fill="none" fill-rule="evenodd">
        <g id="weather-icon-v1" transform="translate(-1069.000000, -330.000000)">
            <g id="icon-weather-sleet-shower" transform="translate(1069.000000, 330.000000)">
                <rect id="Rectangle" fill-opacity="0" fill="#000000" x="0" y="0" width="64" height="64"></rect>
                <g id="" transform="translate(5.000000, 5.000000)" fill="#F05A23" fill-rule="nonzero">
                    <path d="M0,24.9722349 C0,21.9408284 0.935643564,19.2371416 2.80693069,16.8611743 C4.67821782,14.4852071 7.04770477,12.9613109 9.91539154,12.2894857 C10.7092709,8.70095585 12.5279028,5.75557579 15.3712871,3.45334547 C18.2146715,1.15111516 21.4752475,0 25.1530153,0 C27.2592259,0 29.1629163,0.352298589 30.8640864,1.05689577 C30.8640864,1.07328175 30.8721872,1.08966773 30.8883888,1.10605371 C33.0594059,1.95812472 34.9711971,3.30996814 36.6237624,5.16158398 L36.6966697,5.16158398 C38.4464446,7.07874374 39.6291629,9.36458807 40.2448245,12.019117 L41.0468047,12.019117 C43.849685,12.019117 46.2961296,12.7728721 48.3861386,14.2803823 L48.3861386,14.2558034 C49.7632763,15.1898043 50.9176418,16.3532089 51.8492349,17.7460173 C52.7808281,19.1388257 53.4086409,20.6627219 53.7326733,22.317706 C53.829883,22.8748293 53.8946895,23.3254438 53.9270927,23.6695494 L53.9270927,23.6941284 L53.9270927,23.8170232 C53.9270927,23.8334092 53.9392439,23.980883 53.9635464,24.2594447 C53.9878488,24.5380064 54,24.7510241 54,24.898498 L54,24.9230769 L54,24.9722349 C54,27.2826582 53.4491449,29.4251252 52.3474347,31.3996359 C51.2457246,33.3741466 49.7430243,34.9553937 47.8393339,36.1433773 C45.9356436,37.3313609 43.8415842,37.9581247 41.5571557,38.0236686 C41.2169217,38.0236686 41.0468047,37.8761948 41.0468047,37.5812472 L41.0468047,34.0664543 C41.0468047,33.7387346 41.2169217,33.5748748 41.5571557,33.5748748 C43.7767777,33.460173 45.660216,32.567137 47.2074707,30.895767 C48.7547255,29.2243969 49.5283528,27.2498862 49.5283528,24.9722349 C49.5283528,22.6454256 48.6939694,20.6422394 47.0252025,18.9626764 C45.3564356,17.2831133 43.3636364,16.4433318 41.0468047,16.4433318 L36.8667867,16.4433318 C36.5589559,16.4433318 36.4050405,16.295858 36.4050405,16.0009103 L36.2106211,14.4524351 C35.9513951,11.8306782 34.8577858,9.56941284 32.929793,7.66863905 C32.9135914,7.65225307 32.8933393,7.6276741 32.8690369,7.59490214 C32.8447345,7.56213018 32.8244824,7.53755121 32.8082808,7.52116523 C32.7758776,7.48839326 32.7434743,7.47200728 32.7110711,7.47200728 C32.7110711,7.42284934 32.6948695,7.39827037 32.6624662,7.39827037 C30.7830783,5.6613564 28.5715572,4.67819754 26.0279028,4.44879381 C25.849685,4.43240783 25.5580558,4.42421484 25.1530153,4.42421484 C22.3015302,4.42421484 19.8267327,5.38689122 17.7286229,7.31224397 C15.6305131,9.23759672 14.4437444,11.6176604 14.1683168,14.4524351 L13.9738974,16.0009103 C13.8928893,16.2467 13.6984698,16.3695949 13.3906391,16.3695949 L12.0783078,16.4433318 C9.89108911,16.7055075 8.06840684,17.6395084 6.61026103,19.2453345 C5.15211521,20.8511607 4.4230423,22.7601274 4.4230423,24.9722349 L4.4230423,25.0705508 L4.49594959,25.0705508 C4.51215122,26.3158853 4.77542754,27.4956759 5.28577858,28.6099226 C5.79612961,29.7241693 6.48874887,30.6745562 7.36363636,31.4610833 C7.89828983,31.9362767 8.53825383,32.3541193 9.28352835,32.7146108 L9.28352835,32.7391898 C10.320432,33.2471552 11.3654365,33.5257169 12.4185419,33.5748748 C12.710171,33.5748748 12.8559856,33.7305416 12.8559856,34.0418753 L12.8559856,37.5566682 C12.8559856,37.8516158 12.710171,37.9990897 12.4185419,37.9990897 C11.0738074,37.9171598 9.79387939,37.6549841 8.57875788,37.2125626 L8.57875788,37.2371416 C6.42394239,36.4833864 4.59720972,35.2298589 3.09855986,33.4765589 C1.59990999,31.723259 0.639963996,29.7077833 0.218721872,27.430132 L0.218721872,27.3563951 C0.202520252,27.3400091 0.194419442,27.3072371 0.194419442,27.2580792 C0.0648064806,26.586254 0,25.8243059 0,24.9722349 Z M14.2655266,43.7751479 C14.2655266,43.693218 14.2817282,43.5826127 14.3141314,43.4433318 C14.3465347,43.304051 14.3627363,43.2016386 14.3627363,43.1360947 L14.6057606,41.5876195 C14.7839784,40.9649522 15.1363636,40.5020482 15.6629163,40.1989076 C16.1894689,39.895767 16.7767777,39.8261265 17.4248425,39.9899863 C18.0081008,40.1702321 18.4455446,40.5307237 18.7371737,41.0714611 C19.0288029,41.6121985 19.0855086,42.1611288 18.9072907,42.7182522 L18.5427543,44.2913063 C18.2835284,45.438325 17.6273627,46.0118343 16.5742574,46.0118343 C16.4932493,46.0118343 16.3757876,45.9954483 16.2218722,45.9626764 C16.0679568,45.9299044 15.950495,45.9135184 15.8694869,45.9135184 C15.3348335,45.7496586 14.9338434,45.462904 14.6665167,45.0532544 C14.3991899,44.6436049 14.2655266,44.2175694 14.2655266,43.7751479 Z M16.1854185,36.0573509 C16.1854185,35.4346837 16.3879388,34.9185253 16.7929793,34.5088757 C17.1980198,34.0992262 17.7083708,33.8944015 18.3240324,33.8944015 C18.939694,33.8944015 19.450045,34.0992262 19.8550855,34.5088757 C20.260126,34.9185253 20.4626463,35.4346837 20.4626463,36.0573509 C20.4626463,36.6636322 20.260126,37.1715976 19.8550855,37.5812472 C19.450045,37.9908967 18.939694,38.1957214 18.3240324,38.1957214 C17.7245725,38.1957214 17.230423,37.9827037 16.8415842,37.5566682 C16.4041404,37.1470187 16.1854185,36.6472462 16.1854185,36.0573509 Z M20.4383438,51.7633136 C20.4383438,51.6649977 20.4707471,51.468366 20.5355536,51.1734183 L20.8757876,49.6249431 C21.0540054,49.0350478 21.410441,48.5885298 21.9450945,48.2853892 C22.479748,47.9822485 23.0225023,47.9208011 23.5733573,48.1010469 C24.1728173,48.2157487 24.6264626,48.5352754 24.9342934,49.0596268 C25.2421242,49.5839782 25.3150315,50.1820665 25.1530153,50.8538917 L24.8127813,52.4023669 C24.5535554,53.4674556 23.8649865,54 22.7470747,54 C22.5526553,54 22.3420342,53.975421 22.1152115,53.9262631 C21.5481548,53.7624033 21.1269127,53.4715521 20.8514851,53.0537096 C20.5760576,52.6358671 20.4383438,52.2057351 20.4383438,51.7633136 Z M22.479748,44.1438325 C22.479748,43.5375512 22.6822682,43.0295858 23.0873087,42.6199363 C23.4923492,42.2102868 24.0027003,42.005462 24.6183618,42.005462 C25.2340234,42.005462 25.7443744,42.2102868 26.1494149,42.6199363 C26.5544554,43.0295858 26.7569757,43.5375512 26.7569757,44.1438325 C26.7569757,44.7664998 26.5544554,45.2826582 26.1494149,45.6923077 C25.7443744,46.1019572 25.2340234,46.306782 24.6183618,46.306782 C24.0351035,46.306782 23.5328533,46.0937642 23.1116112,45.6677287 C22.690369,45.2416932 22.479748,44.7337278 22.479748,44.1438325 Z M24.0837084,38.1957214 C24.0837084,37.9335457 24.1080108,37.695949 24.1566157,37.4829313 L24.739874,35.12335 C24.9180918,34.5170687 25.2745275,34.0541648 25.8091809,33.7346381 C26.3438344,33.4151115 26.8946895,33.3454711 27.4617462,33.5257169 C28.0774077,33.7059627 28.5351035,34.0582613 28.8348335,34.5826127 C29.1345635,35.106964 29.1953195,35.6558944 29.0171017,36.2294037 L28.3366337,38.588985 C28.1260126,39.3099681 27.769577,39.8015476 27.2673267,40.0637233 C26.7650765,40.325899 26.2142214,40.3750569 25.6147615,40.2111971 C25.0963096,40.1128812 24.7034203,39.8507055 24.4360936,39.42467 C24.1687669,38.9986345 24.0513051,38.588985 24.0837084,38.1957214 Z M31.2529253,43.7997269 C31.2529253,43.717797 31.2650765,43.6030951 31.2893789,43.4556213 C31.3136814,43.3081475 31.3258326,43.2098316 31.3258326,43.1606736 L31.5688569,41.6121985 C31.7470747,40.9895312 32.0994599,40.5266272 32.6260126,40.2234866 C33.1525653,39.9203459 33.739874,39.8507055 34.3879388,40.0145653 C34.9711971,40.1948111 35.4126913,40.5553027 35.7124212,41.0960401 C36.0121512,41.6367774 36.0729073,42.1857078 35.8946895,42.7428311 L35.530153,44.3158853 C35.2709271,45.462904 34.6147615,46.0364133 33.5616562,46.0364133 C33.4806481,46.0364133 33.3591359,46.0200273 33.1971197,45.9872553 C33.0351035,45.9544834 32.9135914,45.9380974 32.8325833,45.9380974 C32.3141314,45.7742376 31.9212421,45.4874829 31.6539154,45.0778334 C31.3865887,44.6681839 31.2529253,44.2421484 31.2529253,43.7997269 Z M33.1728173,36.0819299 C33.1728173,35.4592626 33.3753375,34.9431042 33.780378,34.5334547 C34.1854185,34.1238052 34.6957696,33.9189804 35.3114311,33.9189804 C35.9270927,33.9189804 36.4374437,34.1238052 36.8424842,34.5334547 C37.2475248,34.9431042 37.450045,35.4592626 37.450045,36.0819299 C37.450045,36.6882112 37.2475248,37.1961766 36.8424842,37.6058261 C36.4374437,38.0154756 35.9270927,38.2203004 35.3114311,38.2203004 C34.6957696,38.2203004 34.1935194,38.0072827 33.8046805,37.5812472 C33.3834383,37.1879836 33.1728173,36.6882112 33.1728173,36.0819299 Z" id="Shape"></path>
                </g>
            </g>
        </g>
    </g>
</svg>