<?xml version="1.0" encoding="UTF-8"?>
<svg width="64px" height="64px" viewBox="0 0 64 64" version="1.1" xmlns="http://www.w3.org/2000/svg" xmlns:xlink="http://www.w3.org/1999/xlink">
    <title>F44141F7-0058-40F5-80B4-53986B83F358</title>
    <g id="Page-1" stroke="none" stroke-width="1" fill="none" fill-rule="evenodd">
        <g id="weather-icon-v1" transform="translate(-364.000000, -330.000000)">
            <g id="icon-weather-snow" transform="translate(364.000000, 330.000000)">
                <rect id="Rectangle" fill-opacity="0" fill="#000000" x="0" y="0" width="64" height="64"></rect>
                <g id="" transform="translate(5.000000, 5.000000)" fill="#F05A23" fill-rule="nonzero">
                    <path d="M0,25.6829268 C0,22.5590994 0.924016282,19.7856473 2.77204885,17.3625704 C4.62008141,14.9394934 7.00135685,13.3564728 9.91587517,12.6135084 C10.7299864,8.93245779 12.5576662,5.90994371 15.3989145,3.54596623 C18.2401628,1.18198874 21.5006784,0 25.1804613,0 C28.7625509,0 31.9579376,1.15243902 34.7666214,3.45731707 C37.5753053,5.76219512 39.4029851,8.72138837 40.2496608,12.3348968 L41.0800543,12.3348968 C43.4084125,12.3348968 45.5658073,12.9301126 47.5522388,14.1205441 C49.5386703,15.3109756 51.109905,16.9319887 52.265943,18.9835835 C53.421981,21.0351782 54,23.2682927 54,25.6829268 C54,29.2626642 52.7951153,32.3442777 50.385346,34.9277674 C47.9755767,37.511257 45.0447761,38.8621013 41.5929444,38.9803002 C41.2510176,38.9803002 41.0800543,38.8283302 41.0800543,38.5243902 L41.0800543,34.9277674 C41.0800543,34.6069418 41.2510176,34.4465291 41.5929444,34.4465291 C43.807327,34.3283302 45.7001357,33.4122889 47.2713704,31.6984053 C48.8426052,29.9845216 49.6282225,27.9793621 49.6282225,25.6829268 C49.6282225,23.2851782 48.7896879,21.2166979 47.1126187,19.4774859 C45.4355495,17.7382739 43.4246947,16.8686679 41.0800543,16.8686679 L36.8792402,16.8686679 C36.5698779,16.8686679 36.4151967,16.7166979 36.4151967,16.412758 L36.21981,14.8424015 C35.92673,11.9212008 34.7177748,9.4727955 32.5929444,7.49718574 C30.468114,5.52157598 27.9972863,4.53377111 25.1804613,4.53377111 C22.3147897,4.53377111 19.8276798,5.53001876 17.7191316,7.52251407 C15.6105834,9.51500938 14.4179104,11.988743 14.1411126,14.9437148 L13.9945726,16.2861163 C13.9945726,16.6238274 13.8236092,16.7926829 13.4816825,16.7926829 L12.1139756,16.9699812 C9.94843962,17.1557223 8.12890095,18.0886492 6.65535957,19.7687617 C5.18181818,21.4488743 4.44504749,23.4202627 4.44504749,25.6829268 C4.44504749,27.9793621 5.23066486,29.9845216 6.80189959,31.6984053 C8.37313433,33.4122889 10.265943,34.3283302 12.4803256,34.4465291 C12.7734057,34.4465291 12.9199457,34.6069418 12.9199457,34.9277674 L12.9199457,38.5243902 C12.9199457,38.8283302 12.7734057,38.9803002 12.4803256,38.9803002 C8.99592944,38.8621013 6.04477612,37.511257 3.62686567,34.9277674 C1.20895522,32.3442777 0,29.2626642 0,25.6829268 Z M16.5834464,36.6754221 C16.5834464,36.0675422 16.7910448,35.5440901 17.2062415,35.1050657 C17.6214383,34.6660413 18.1302578,34.4465291 18.7327001,34.4465291 C19.3351425,34.4465291 19.843962,34.6660413 20.2591588,35.1050657 C20.6743555,35.5440901 20.8819539,36.0675422 20.8819539,36.6754221 C20.8819539,37.3170732 20.6743555,37.8616323 20.2591588,38.3090994 C19.843962,38.7565666 19.3351425,38.9803002 18.7327001,38.9803002 C18.1302578,38.9803002 17.6214383,38.7565666 17.2062415,38.3090994 C16.7910448,37.8616323 16.5834464,37.3170732 16.5834464,36.6754221 Z M17.1940299,48.0731707 C16.7869742,47.6510319 16.5834464,47.119137 16.5834464,46.4774859 C16.5834464,45.8358349 16.7951153,45.2954972 17.2184532,44.8564728 C17.6255088,44.4512195 18.1302578,44.2485929 18.7327001,44.2485929 C19.3351425,44.2485929 19.843962,44.4596623 20.2591588,44.8818011 C20.6743555,45.30394 20.8819539,45.8358349 20.8819539,46.4774859 C20.8819539,47.119137 20.6743555,47.6510319 20.2591588,48.0731707 C19.843962,48.4953096 19.3351425,48.706379 18.7327001,48.706379 C18.1302578,48.706379 17.6173677,48.4953096 17.1940299,48.0731707 Z M25.5223881,43.488743 C25.0990502,43.0497186 24.8873813,42.5178236 24.8873813,41.8930582 C24.8873813,41.2682927 25.1071913,40.7110694 25.5468114,40.2213884 C25.9701493,39.782364 26.4667571,39.5628518 27.036635,39.5628518 C27.6390773,39.5628518 28.1641791,39.7950281 28.6119403,40.2593809 C29.0597015,40.7237336 29.2835821,41.2682927 29.2835821,41.8930582 C29.2835821,42.5178236 29.063772,43.05394 28.624152,43.5014071 C28.1845319,43.9488743 27.6553596,44.1726079 27.036635,44.1726079 C26.4504749,44.1726079 25.9457259,43.9446529 25.5223881,43.488743 Z M25.5223881,33.7120075 C25.0990502,33.2729831 24.8873813,32.7410882 24.8873813,32.1163227 C24.8873813,31.4915572 25.1071913,30.9512195 25.5468114,30.4953096 C26.0027137,30.0562852 26.4993216,29.836773 27.036635,29.836773 C27.6553596,29.836773 28.1845319,30.0605066 28.624152,30.5079737 C29.063772,30.9554409 29.2835821,31.4915572 29.2835821,32.1163227 C29.2835821,32.7410882 29.063772,33.2687617 28.624152,33.6993433 C28.1845319,34.129925 27.6553596,34.3452158 27.036635,34.3452158 C26.4504749,34.3452158 25.9457259,34.1341463 25.5223881,33.7120075 Z M24.8873813,51.7711069 C24.8873813,51.163227 25.1071913,50.6144465 25.5468114,50.1247655 C25.9701493,49.6857411 26.4667571,49.4662289 27.036635,49.4662289 C27.6553596,49.4662289 28.1845319,49.6941839 28.624152,50.1500938 C29.063772,50.6060038 29.2835821,51.1463415 29.2835821,51.7711069 C29.2835821,52.3958724 29.063772,52.923546 28.624152,53.3541276 C28.1845319,53.7847092 27.6553596,54 27.036635,54 C26.4504749,54 25.9457259,53.7847092 25.5223881,53.3541276 C25.0990502,52.923546 24.8873813,52.3958724 24.8873813,51.7711069 Z M33.2890095,36.6754221 C33.2890095,36.0844278 33.5088195,35.565197 33.9484396,35.1177298 C34.3880597,34.6702627 34.9090909,34.4465291 35.5115332,34.4465291 C36.1139756,34.4465291 36.6227951,34.6660413 37.0379919,35.1050657 C37.4531886,35.5440901 37.660787,36.0675422 37.660787,36.6754221 C37.660787,37.3170732 37.4531886,37.8616323 37.0379919,38.3090994 C36.6227951,38.7565666 36.1139756,38.9803002 35.5115332,38.9803002 C34.8928087,38.9803002 34.3677069,38.7523452 33.936228,38.2964353 C33.504749,37.8405253 33.2890095,37.3001876 33.2890095,36.6754221 Z M33.2890095,46.4774859 C33.2890095,45.8864916 33.5088195,45.3461538 33.9484396,44.8564728 C34.3717775,44.4512195 34.8928087,44.2485929 35.5115332,44.2485929 C36.1302578,44.2485929 36.6431479,44.4596623 37.0502035,44.8818011 C37.4572592,45.30394 37.660787,45.8358349 37.660787,46.4774859 C37.660787,47.119137 37.4572592,47.6510319 37.0502035,48.0731707 C36.6431479,48.4953096 36.1302578,48.706379 35.5115332,48.706379 C34.8928087,48.706379 34.3677069,48.4910882 33.936228,48.0605066 C33.504749,47.629925 33.2890095,47.1022514 33.2890095,46.4774859 Z" id="Shape"></path>
                </g>
            </g>
        </g>
    </g>
</svg>