<?xml version="1.0" encoding="UTF-8"?>
<svg width="64px" height="64px" viewBox="0 0 64 64" version="1.1" xmlns="http://www.w3.org/2000/svg" xmlns:xlink="http://www.w3.org/1999/xlink">
    <title>BB4623D2-5438-4B63-A6D5-8A32B55D7CA6</title>
    <g id="Page-1" stroke="none" stroke-width="1" fill="none" fill-rule="evenodd">
        <g id="weather-icon-v1" transform="translate(-840.000000, -482.000000)">
            <g id="icon-weather-thunderstorm" transform="translate(840.000000, 482.000000)">
                <rect id="Rectangle" fill-opacity="0" fill="#000000" x="0" y="0" width="64" height="64"></rect>
                <g id="" transform="translate(5.000000, 5.000000)" fill="#F05A23" fill-rule="nonzero">
                    <path d="M0,25.0431193 C0,27.966055 0.861788618,30.5834862 2.58536585,32.8954128 C4.30894309,35.2073394 6.54471545,36.7844037 9.29268293,37.6266055 L7.58536585,42.0605505 C7.50406504,42.440367 7.62601626,42.6302752 7.95121951,42.6302752 L13.4878049,42.6302752 L10.9268293,54 L11.6585366,54 L21.8536585,38.8155963 C21.9512195,38.7 21.9634146,38.5802752 21.8902439,38.456422 C21.8170732,38.3325688 21.6910569,38.2706422 21.5121951,38.2706422 L15.8536585,38.2706422 L22.2926829,26.0091743 C22.4715447,25.6293578 22.3495935,25.4394495 21.9268293,25.4394495 L14.2682927,25.4394495 C14.0243902,25.4394495 13.8211382,25.5715596 13.6585366,25.8357798 L10.8780488,33.4155963 C9.02439024,32.9366972 7.48780488,31.912844 6.26829268,30.3440367 C5.04878049,28.7752294 4.43902439,27.0082569 4.43902439,25.0431193 C4.43902439,22.846789 5.17479675,20.9394495 6.64634146,19.3211009 C8.11788618,17.7027523 9.94308943,16.7614679 12.1219512,16.4972477 L13.4878049,16.3238532 C13.8292683,16.3238532 14,16.1669725 14,15.853211 L14.1707317,14.5155963 C14.4471545,11.6587156 15.6382114,9.26422018 17.7439024,7.33211009 C19.8495935,5.4 22.3252033,4.43394495 25.1707317,4.43394495 C28,4.43394495 30.4756098,5.4 32.597561,7.33211009 C34.7195122,9.26422018 35.9349593,11.6587156 36.2439024,14.5155963 L36.4146341,16.0513761 C36.4146341,16.3486239 36.5691057,16.4972477 36.8780488,16.4972477 L41.0487805,16.4972477 C43.4065041,16.4972477 45.4227642,17.3353211 47.097561,19.0114679 C48.7723577,20.6876147 49.6097561,22.6981651 49.6097561,25.0431193 C49.6097561,27.2889908 48.8373984,29.2334862 47.2926829,30.8766055 C45.7479675,32.5197248 43.8373984,33.4321101 41.5609756,33.6137615 C41.2195122,33.6137615 41.0487805,33.7706422 41.0487805,34.0844037 L41.0487805,37.7009174 C41.0487805,37.9981651 41.2195122,38.146789 41.5609756,38.146789 C45.0243902,38.0311927 47.9634146,36.7018349 50.3780488,34.1587156 C52.7926829,31.6155963 54,28.5770642 54,25.0431193 C54,22.6651376 53.4227642,20.4729358 52.2682927,18.4665138 C51.1138211,16.4600917 49.5406504,14.8747706 47.5487805,13.7105505 C45.5569106,12.5463303 43.3902439,11.9642202 41.0487805,11.9642202 L40.2439024,11.9642202 C39.3821138,8.44678899 37.5487805,5.5733945 34.7439024,3.3440367 C31.9390244,1.1146789 28.7479675,0 25.1707317,0 C21.495935,0 18.2357724,1.1559633 15.3902439,3.46788991 C12.5447154,5.77981651 10.7235772,8.73577982 9.92682927,12.3357798 C7.04878049,13.012844 4.67479675,14.5362385 2.80487805,16.9059633 C0.93495935,19.2756881 0,21.9880734 0,25.0431193 Z M21.195122,50.7055046 C21.195122,51.7458716 21.699187,52.4229358 22.7073171,52.7366972 C22.7398374,52.7366972 22.8373984,52.7490826 23,52.7738532 C23.1626016,52.7986239 23.2845528,52.8110092 23.3658537,52.8110092 C23.804878,52.8110092 24.2317073,52.6830275 24.6463415,52.4270642 C25.0609756,52.1711009 25.3414634,51.7458716 25.4878049,51.1513761 L31.3414634,28.1889908 C31.504065,27.5614679 31.4471545,26.9917431 31.1707317,26.4798165 C30.8943089,25.9678899 30.4634146,25.6211009 29.8780488,25.4394495 C29.4390244,25.3899083 29.2113821,25.3651376 29.195122,25.3651376 C28.7723577,25.3651376 28.3617886,25.4972477 27.9634146,25.7614679 C27.5650407,26.0256881 27.2926829,26.4220183 27.1463415,26.9504587 L21.2682927,49.987156 C21.2195122,50.2183486 21.195122,50.4577982 21.195122,50.7055046 Z M32,42.6055046 C32,42.9522936 32.0894309,43.2825688 32.2682927,43.5963303 C32.6260163,44.1743119 33.0650407,44.5623853 33.5853659,44.7605505 C33.8617886,44.8431193 34.1219512,44.8844037 34.3658537,44.8844037 C34.6097561,44.8844037 34.8861789,44.8183486 35.195122,44.6862385 C35.7317073,44.4550459 36.097561,43.9513761 36.2926829,43.1752294 L40.0487805,28.1889908 C40.1300813,27.8091743 40.1707317,27.5697248 40.1707317,27.4706422 C40.1707317,27.0743119 40.0325203,26.6779817 39.7560976,26.2816514 C39.4796748,25.8853211 39.0813008,25.6045872 38.5609756,25.4394495 C38.1219512,25.3899083 37.8943089,25.3651376 37.8780488,25.3651376 C37.4390244,25.3651376 37.0325203,25.4931193 36.6585366,25.7490826 C36.2845528,26.0050459 36.0243902,26.4055046 35.8780488,26.9504587 L32.0731707,42.0110092 C32.0731707,42.0605505 32.0609756,42.1555046 32.0365854,42.2958716 C32.0121951,42.4362385 32,42.5394495 32,42.6055046 Z" id="Shape"></path>
                </g>
            </g>
        </g>
    </g>
</svg>