<?xml version="1.0" encoding="UTF-8"?>
<svg width="12px" height="20px" viewBox="0 0 12 20" version="1.1" xmlns="http://www.w3.org/2000/svg" xmlns:xlink="http://www.w3.org/1999/xlink">
    <title>402B0C7E-2282-4BAC-90C5-F03BA59C4283</title>
    <g id="Page-1" stroke="none" stroke-width="1" fill="none" fill-rule="evenodd">
        <g id="dahboard-live-status" transform="translate(-1240.000000, -314.000000)" fill="#FFFFFF" fill-rule="nonzero">
            <g id="Group-22" transform="translate(1230.000000, 308.000000)">
                <g id="batttery" transform="translate(16.000000, 16.000000) rotate(-90.000000) translate(-16.000000, -16.000000) translate(6.000000, 10.000000)">
                    <path d="M18,4 L18,2 C18,0.8954305 17.1045695,0 16,0 L2,0 C0.8954305,0 0,0.8954305 0,2 L0,10 C0,11.1045695 0.8954305,12 2,12 L16,12 C17.1045695,12 18,11.1045695 18,10 L18,8 L20,8 L20,4 L18,4 Z M7,11 L9,7.11 L5,6 L11,1 L10,4.89 L14,6 L7,11 Z" id="Shape"></path>
                </g>
            </g>
        </g>
    </g>
</svg>