<?xml version="1.0" encoding="UTF-8"?>
<svg width="16px" height="19px" viewBox="0 0 16 19" version="1.1" xmlns="http://www.w3.org/2000/svg" xmlns:xlink="http://www.w3.org/1999/xlink">
    <title>B82A3BE0-7291-4B46-BD11-F7E2925D3C58</title>
    <g id="Page-1" stroke="none" stroke-width="1" fill="none" fill-rule="evenodd">
        <g id="dahboard-live-status" transform="translate(-571.000000, -902.000000)" fill="#B8B8B8" fill-rule="nonzero">
            <g id="Group-19" transform="translate(93.000000, 821.000000)">
                <g id="Group-13" transform="translate(393.000000, 81.000000)">
                    <g id="calendar-icon" transform="translate(85.000000, 0.000000)">
                        <path d="M0,16.5714286 C0,17.5178571 0.767857143,18.2857143 1.71428571,18.2857143 L14.2857143,18.2857143 C15.2321429,18.2857143 16,17.5178571 16,16.5714286 L16,6.85714286 L0,6.85714286 L0,16.5714286 Z M11.4285714,9.57142857 C11.4285714,9.33571429 11.6214286,9.14285714 11.8571429,9.14285714 L13.2857143,9.14285714 C13.5214286,9.14285714 13.7142857,9.33571429 13.7142857,9.57142857 L13.7142857,11 C13.7142857,11.2357143 13.5214286,11.4285714 13.2857143,11.4285714 L11.8571429,11.4285714 C11.6214286,11.4285714 11.4285714,11.2357143 11.4285714,11 L11.4285714,9.57142857 Z M11.4285714,14.1428571 C11.4285714,13.9071429 11.6214286,13.7142857 11.8571429,13.7142857 L13.2857143,13.7142857 C13.5214286,13.7142857 13.7142857,13.9071429 13.7142857,14.1428571 L13.7142857,15.5714286 C13.7142857,15.8071429 13.5214286,16 13.2857143,16 L11.8571429,16 C11.6214286,16 11.4285714,15.8071429 11.4285714,15.5714286 L11.4285714,14.1428571 Z M6.85714286,9.57142857 C6.85714286,9.33571429 7.05,9.14285714 7.28571429,9.14285714 L8.71428571,9.14285714 C8.95,9.14285714 9.14285714,9.33571429 9.14285714,9.57142857 L9.14285714,11 C9.14285714,11.2357143 8.95,11.4285714 8.71428571,11.4285714 L7.28571429,11.4285714 C7.05,11.4285714 6.85714286,11.2357143 6.85714286,11 L6.85714286,9.57142857 Z M6.85714286,14.1428571 C6.85714286,13.9071429 7.05,13.7142857 7.28571429,13.7142857 L8.71428571,13.7142857 C8.95,13.7142857 9.14285714,13.9071429 9.14285714,14.1428571 L9.14285714,15.5714286 C9.14285714,15.8071429 8.95,16 8.71428571,16 L7.28571429,16 C7.05,16 6.85714286,15.8071429 6.85714286,15.5714286 L6.85714286,14.1428571 Z M2.28571429,9.57142857 C2.28571429,9.33571429 2.47857143,9.14285714 2.71428571,9.14285714 L4.14285714,9.14285714 C4.37857143,9.14285714 4.57142857,9.33571429 4.57142857,9.57142857 L4.57142857,11 C4.57142857,11.2357143 4.37857143,11.4285714 4.14285714,11.4285714 L2.71428571,11.4285714 C2.47857143,11.4285714 2.28571429,11.2357143 2.28571429,11 L2.28571429,9.57142857 Z M2.28571429,14.1428571 C2.28571429,13.9071429 2.47857143,13.7142857 2.71428571,13.7142857 L4.14285714,13.7142857 C4.37857143,13.7142857 4.57142857,13.9071429 4.57142857,14.1428571 L4.57142857,15.5714286 C4.57142857,15.8071429 4.37857143,16 4.14285714,16 L2.71428571,16 C2.47857143,16 2.28571429,15.8071429 2.28571429,15.5714286 L2.28571429,14.1428571 Z M14.2857143,2.28571429 L12.5714286,2.28571429 L12.5714286,0.571428571 C12.5714286,0.257142857 12.3142857,0 12,0 L10.8571429,0 C10.5428571,0 10.2857143,0.257142857 10.2857143,0.571428571 L10.2857143,2.28571429 L5.71428571,2.28571429 L5.71428571,0.571428571 C5.71428571,0.257142857 5.45714286,0 5.14285714,0 L4,0 C3.68571429,0 3.42857143,0.257142857 3.42857143,0.571428571 L3.42857143,2.28571429 L1.71428571,2.28571429 C0.767857143,2.28571429 0,3.05357143 0,4 L0,5.71428571 L16,5.71428571 L16,4 C16,3.05357143 15.2321429,2.28571429 14.2857143,2.28571429 Z" id="Shape"></path>
                    </g>
                </g>
            </g>
        </g>
    </g>
</svg>