<?xml version="1.0" encoding="UTF-8"?>
<svg width="16px" height="16px" viewBox="0 0 16 16" version="1.1" xmlns="http://www.w3.org/2000/svg" xmlns:xlink="http://www.w3.org/1999/xlink">
    <title>73B23962-3A70-4B10-A798-67A52CD3B825</title>
    <g id="Page-1" stroke="none" stroke-width="1" fill="none" fill-rule="evenodd">
        <g id="admin" transform="translate(-1346.000000, -479.000000)" fill="#515151" fill-rule="nonzero">
            <g id="9110932_circle_arrow_right_curved_icon-copy" transform="translate(1346.000000, 479.000000)">
                <path d="M8,16 C3.581722,16 0,12.418278 0,8 C0,3.581722 3.581722,0 8,0 C12.418278,0 16,3.581722 16,8 C16,12.418278 12.418278,16 8,16 Z M8,14.5454545 C11.6149547,14.5454545 14.5454545,11.6149547 14.5454545,8 C14.5454545,4.38504527 11.6149547,1.45454545 8,1.45454545 C4.38504527,1.45454545 1.45454545,4.38504527 1.45454545,8 C1.45454545,11.6149547 4.38504527,14.5454545 8,14.5454545 Z M9.88057193,5.81818182 L8.21301324,4.15062311 L9.24153222,3.12210416 L12.6648826,6.54545455 L9.24153222,9.96880495 L8.21301324,8.94028596 L9.88057193,7.27272727 L6.54545455,7.27272727 C5.74213127,7.27272727 5.09090909,7.92394945 5.09090909,8.72727273 C5.09090909,9.530596 5.74213127,10.1818182 6.54545455,10.1818182 L6.54545455,11.6363636 C4.938808,11.6363636 3.63636364,10.3339193 3.63636364,8.72727273 C3.63636364,7.12062618 4.938808,5.81818182 6.54545455,5.81818182 L9.88057193,5.81818182 Z" id="Shape"></path>
            </g>
        </g>
    </g>
</svg>