<?xml version="1.0" encoding="UTF-8"?>
<svg width="16.0005293px" height="16px" viewBox="0 0 16.0005293 16" version="1.1" xmlns="http://www.w3.org/2000/svg" xmlns:xlink="http://www.w3.org/1999/xlink">
    <title>4239774B-C0A5-44F1-A879-BC03D653131E</title>
    <g id="Page-1" stroke="none" stroke-width="1" fill="none" fill-rule="evenodd">
        <g id="admin" transform="translate(-627.000000, -349.000000)" fill="#515151">
            <g id="icon/action/add" transform="translate(627.000000, 349.000000)">
                <path d="M13.828095,0 C14.4045524,0 14.9566598,0.228677298 15.3642559,0.636273407 C15.7713227,1.04334017 16.0005293,1.59597697 16.0005293,2.17190498 C16.0005293,5.22993449 16.0005293,10.7705949 16.0005293,13.828095 C16.0005293,14.404023 15.7713227,14.9566598 15.3642559,15.3642559 C14.9566598,15.7713227 14.4045524,16 13.828095,16 C10.7705949,16 5.22993449,16 2.17243433,16 C1.59597697,16 1.04386952,15.7713227 0.636273407,15.3642559 C0.229206643,14.9566598 0,14.404023 0,13.828095 C0,10.7705949 0,5.22993449 0,2.17190498 C0,1.59597697 0.229206643,1.04334017 0.636273407,0.636273407 C1.04386952,0.228677298 1.59597697,0 2.17243433,0 C5.22993449,0 10.7705949,0 13.828095,0 Z M7.99989016,6.85938642 L10.4856421,4.37213726 C10.800806,4.05697341 11.3113568,4.056973 11.6261464,4.37176255 C11.6261464,4.37176255 11.6261464,4.37176255 11.6261464,4.37176255 C11.9416841,4.68655251 11.9416841,5.19710297 11.6265203,5.51226682 L9.14114264,7.99989028 L11.6283918,10.4856422 C11.9435556,10.8008061 11.9435556,11.3113565 11.6287661,11.6261461 C11.6287661,11.6261461 11.6287661,11.6261461 11.6287661,11.6261461 C11.3136022,11.9413099 10.8034261,11.9416842 10.4882622,11.6265204 L8.00101307,9.14076845 L5.51488683,11.6283919 C5.20009728,11.9431815 4.68917251,11.9435558 4.37438297,11.6287662 C4.37438297,11.6287662 4.37438297,11.6287662 4.37438297,11.6287662 C4.05921912,11.3136024 4.05921912,10.8030519 4.37400866,10.4882624 L6.8597606,8.00026459 L4.37251145,5.51451265 C4.05697329,5.1997231 4.05697329,4.68917263 4.37213714,4.37400878 C4.37213714,4.37400878 4.37213714,4.37400878 4.37213714,4.37400878 C4.68692669,4.05921924 5.19710285,4.05884493 5.51264101,4.37363448 L7.99989016,6.85938642 L7.99989016,6.85938642 Z" id="deactivate-user-icon"></path>
            </g>
        </g>
    </g>
</svg>