<?xml version="1.0" encoding="UTF-8"?>
<svg width="24px" height="22px" viewBox="0 0 24 22" version="1.1" xmlns="http://www.w3.org/2000/svg" xmlns:xlink="http://www.w3.org/1999/xlink">
    <title>B259440D-D83A-4455-BBEF-24F030CD0141</title>
    <g id="Page-1" stroke="none" stroke-width="1" fill="none" fill-rule="evenodd">
        <g id="dahboard-live-status" transform="translate(-846.000000, -180.000000)" fill="#FFFFFF" fill-rule="nonzero">
            <g id="Group-4" transform="translate(543.000000, 147.000000)">
                <g id="co2-icon" transform="translate(303.000000, 33.000000)">
                    <path d="M23.4163368,17.8831585 C20.4302845,17.4263879 20.205308,16.9900698 20.205308,16.9900698 C20.8188804,13.3018181 18.916806,8.63185051 15.8012218,6.10256882 C11.663017,2.74155569 5.36367394,5.18221026 0.461912388,0.0691071122 C-0.683422717,-1.12395029 -0.0153105723,13.4518024 6.1204132,18.9739538 C10.606309,23.0098966 15.8898489,21.7691169 17.3419702,21.1078222 C18.6577421,20.5078848 19.5781007,19.4102719 19.5781007,19.4102719 C21.971033,20.1465588 23.1572729,20.105654 23.1572729,20.105654 C23.9958218,20.207916 24.418505,18.0331428 23.4163368,17.8831585 Z M17.9487251,18.1285874 C10.0881812,15.8038299 4.17743401,7.64331724 4.17743401,7.64331724 C4.17743401,7.64331724 9.36552933,13.7654061 18.5077578,16.7446408 C18.5213927,17.2082289 18.2486939,17.8695235 17.9487251,18.1285874 Z" id="Shape"></path>
                </g>
            </g>
        </g>
    </g>
</svg>