<?xml version="1.0" encoding="UTF-8"?>
<svg width="18px" height="18.0001001px" viewBox="0 0 18 18.0001001" version="1.1" xmlns="http://www.w3.org/2000/svg" xmlns:xlink="http://www.w3.org/1999/xlink">
    <title>DB4FAC76-83E4-4741-B298-8550F152B429</title>
    <g id="Page-1" stroke="none" stroke-width="1" fill="none" fill-rule="evenodd">
        <g id="admin" transform="translate(-1192.000000, -348.000000)">
            <g id="buttons/settings-copy" transform="translate(1183.000000, 339.000000)">
                <g id="csv-icon" transform="translate(9.000000, 9.000000)">
                    <g id="background" transform="translate(-0.000000, 0.000000)">
                        <rect id="Rectangle" x="0" y="0" width="13.7142619" height="13.714362"></rect>
                    </g>
                    <g id="Group" transform="translate(0.857048, 0.857148)" fill="#515151" fill-rule="nonzero">
                        <polygon id="Path" points="3.21430358 13.9286489 3.21430358 6.42860717 11.357206 6.42860717 11.357206 3.01073102 8.35718932 0 0 0 0 17.1429524 11.357206 17.1429524 11.357206 13.9286489"></polygon>
                        <g transform="translate(4.285738, 7.500042)" id="Path">
                            <path d="M3.8571643,3.50359091 L3.8571643,3.5250196 C3.86787865,4.08216555 3.70716347,4.53216805 3.37501876,4.85359841 C3.04287406,5.18574312 2.58215721,5.34645829 1.99286822,5.34645829 C1.40357923,5.34645829 0.921433694,5.14288573 0.557145955,4.74645496 C0.192858215,4.33930984 0,3.82502127 0,3.19287489 L0,2.16429775 C0,1.53215138 0.18214387,1.0178628 0.535717264,0.610717681 C0.900005004,0.20357256 1.36072185,0 1.9392965,0 C2.55001418,0 3.02144537,0.160715179 3.36430442,0.492859883 C3.70716347,0.825004587 3.86787865,1.27500709 3.86787865,1.84286739 L3.86787865,1.86429608 L2.90358757,1.86429608 C2.90358757,1.52143703 2.82858715,1.2535784 2.66787197,1.07143453 C2.51787114,0.889290658 2.2714412,0.792861551 1.9392965,0.792861551 C1.65000917,0.792861551 1.41429358,0.921433694 1.23214971,1.17857798 C1.05000584,1.43572227 0.975005421,1.75715263 0.975005421,2.1535834 L0.975005421,3.19287489 C0.975005421,3.58930567 1.06072018,3.92145037 1.2535784,4.16788031 C1.44643661,4.41431026 1.68215221,4.55359674 1.99286822,4.55359674 C2.30358424,4.55359674 2.52858549,4.46788198 2.67858632,4.28573811 C2.82858715,4.10359424 2.90358757,3.84644996 2.90358757,3.50359091 L3.8571643,3.50359091 L3.8571643,3.50359091 Z"></path>
                            <path d="M7.21075437,3.92145037 C7.21075437,3.71787781 7.1464683,3.55716263 7.00718181,3.43930484 C6.87860967,3.32144704 6.64289407,3.20358924 6.30003502,3.09644579 C5.71074603,2.91430192 5.27145788,2.71072936 4.97145621,2.46429941 C4.67145454,2.21786947 4.52145371,1.88572477 4.52145371,1.45715096 C4.52145371,1.02857715 4.69288323,0.685718098 5.03574228,0.407145121 C5.37860133,0.128572143 5.81788949,0 6.35360675,0 C6.88932402,0 7.32861217,0.150000834 7.67147122,0.460716847 C8.01433027,0.760718515 8.17504545,1.1357206 8.1643311,1.5857231 L8.1643311,1.60715179 L7.20004003,1.60715179 C7.20004003,1.3714362 7.12503961,1.16786364 6.97503878,1.0178628 C6.82503794,0.867861968 6.61075104,0.792861551 6.33217806,0.792861551 C6.05360508,0.792861551 5.86074687,0.857147622 5.72146038,0.975005421 C5.58217389,1.10357756 5.50717347,1.2535784 5.50717347,1.44643661 C5.50717347,1.61786614 5.58217389,1.76786697 5.74288907,1.88572477 C5.8928899,2.00358257 6.16074854,2.12144037 6.53575062,2.25001251 C7.08218223,2.41072769 7.48932735,2.62501459 7.76790033,2.88215888 C8.04647331,3.13930317 8.18575979,3.49287656 8.18575979,3.91073603 C8.18575979,4.32859549 8.02504462,4.70359758 7.69289991,4.96074186 C7.36075521,5.21788615 6.92146705,5.34645829 6.37503544,5.34645829 C5.82860383,5.34645829 5.36788699,5.19645746 4.97145621,4.90717014 C4.57502543,4.61788282 4.38216722,4.2107377 4.39288157,3.67502043 L4.39288157,3.65359174 L5.35717264,3.65359174 C5.35717264,3.96430775 5.4428874,4.189309 5.62503127,4.33930984 C5.80717514,4.47859633 6.05360508,4.55359674 6.37503544,4.55359674 C6.64289407,4.55359674 6.84646663,4.50002502 6.98575312,4.38216722 C7.12503961,4.26430942 7.20004003,4.11430859 7.20004003,3.91073603 L7.21075437,3.92145037 Z"></path>
                            <polygon points="10.6072018 3.90002168 10.6714879 4.17859466 10.6929166 4.17859466 10.7464883 3.90002168 11.8179228 0.075000417 12.8572143 0.075000417 11.1857765 5.28217222 10.178628 5.28217222 8.50719015 0.075000417 9.54648164 0.075000417 10.6072018 3.90002168"></polygon>
                        </g>
                    </g>
                </g>
            </g>
        </g>
    </g>
</svg>