<?xml version="1.0" encoding="UTF-8"?>
<svg width="12px" height="16px" viewBox="0 0 12 16" version="1.1" xmlns="http://www.w3.org/2000/svg" xmlns:xlink="http://www.w3.org/1999/xlink">
    <title>0A86168F-20C6-408E-BC62-695192004FDB</title>
    <g id="Page-1" stroke="none" stroke-width="1" fill="none" fill-rule="evenodd">
        <g id="dahboard-live-status" transform="translate(-918.000000, -847.000000)" fill="#515151" fill-rule="nonzero">
            <g id="Group-19" transform="translate(93.000000, 821.000000)">
                <g id="Group-3" transform="translate(811.000000, 14.000000)">
                    <g id="download-icon" transform="translate(14.000000, 12.000000)">
                        <path d="M5.43897633,12.2937092 C5.71948817,12.6640017 6.28051183,12.6640017 6.56102367,12.2937092 L10.7687012,7.62802441 C11.119341,7.25773196 10.7687012,6.66526404 10.2076775,6.66526404 L7.40255917,6.66526404 C7.40255917,6.66526404 7.54281508,3.25857353 7.40255917,1.48116979 C7.33243121,0.666526404 6.77140754,0 6,0 C5.22859246,0 4.66756879,0.666526404 4.59744083,1.48116979 C4.45718492,3.18451504 4.59744083,6.66526404 4.59744083,6.66526404 L1.7923225,6.66526404 C1.23129883,6.66526404 0.880659042,7.25773196 1.23129883,7.7020829 L5.43897633,12.2937092 Z" id="Path"></path>
                        <path d="M10.6666667,13.7142857 L1.33333333,13.7142857 C0.6,13.7142857 0,14.4 0,15.2380952 L0,15.2380952 C0,15.6952381 0.266666667,16 0.666666667,16 L11.3333333,16 C11.7333333,16 12,15.6952381 12,15.2380952 L12,15.2380952 C12,14.4 11.4,13.7142857 10.6666667,13.7142857 Z" id="Path"></path>
                    </g>
                </g>
            </g>
        </g>
    </g>
</svg>