<?xml version="1.0" encoding="UTF-8"?>
<svg width="18px" height="18px" viewBox="0 0 18 18" version="1.1" xmlns="http://www.w3.org/2000/svg" xmlns:xlink="http://www.w3.org/1999/xlink">
    <title>EAAA4447-6657-4FA5-91A1-048597CC1DAE</title>
    <g id="Page-1" stroke="none" stroke-width="1" fill="none" fill-rule="evenodd">
        <g id="dahboard-live-status" transform="translate(-1237.000000, -375.000000)" fill="#FFFFFF" fill-rule="nonzero">
            <g id="Group-23" transform="translate(1230.000000, 368.000000)">
                <g id="grid" transform="translate(7.000000, 7.000000)">
                    <path d="M11.97,0 L6.03,0 L0,4.014 L0,7.2 L1.8,7.2 L1.8,5.4 L5.4,5.4 L5.4,7.911 L1.8,16.011 L1.8,18 L3.6,18 L3.6,16.731 L9,13.788 L14.4,16.731 L14.4,18 L16.2,18 L16.2,16.011 L12.6,7.911 L12.6,5.4 L16.2,5.4 L16.2,7.2 L18,7.2 L18,4.014 L11.97,0 Z M10.8,1.8 L10.8,3.6 L7.2,3.6 L7.2,1.8 L10.8,1.8 Z M3.87,3.6 L5.4,2.583 L5.4,3.6 L3.87,3.6 Z M11.07,9 L11.7,10.278 L9,11.7 L6.3,10.278 L6.885,9 L11.07,9 Z M4.599,14.139 L5.58,11.925 L7.119,12.762 L4.599,14.139 Z M12.411,11.925 L13.392,14.139 L10.872,12.762 L12.411,11.925 Z M10.8,7.2 L7.2,7.2 L7.2,5.4 L10.8,5.4 L10.8,7.2 Z M12.6,2.583 L14.13,3.6 L12.6,3.6 L12.6,2.583 Z" id="Shape"></path>
                </g>
            </g>
        </g>
    </g>
</svg>