<?xml version="1.0" encoding="UTF-8"?>
<svg width="21px" height="16px" viewBox="0 0 21 16" version="1.1" xmlns="http://www.w3.org/2000/svg" xmlns:xlink="http://www.w3.org/1999/xlink">
    <title>68FD2CEC-05C0-4636-9248-B1C6AD2BB2E3</title>
    <g id="Page-1" stroke="none" stroke-width="1" fill="none" fill-rule="evenodd">
        <g id="dahboard-live-status" transform="translate(-1173.000000, -894.000000)" fill="#FFFFFF" fill-rule="nonzero">
            <g id="home-usage-icon" transform="translate(1173.000000, 894.000000)">
                <path d="M10.2215814,4.1508204 L3.50027743,9.57464003 L3.50027743,15.4285076 C3.50027743,15.7441342 3.76142449,16 4.08356573,16 L8.16877117,15.9896417 C8.48977287,15.9880691 8.74914704,15.7326633 8.74914302,15.4181493 L8.74914302,11.9995535 C8.74914302,11.683927 9.01029009,11.4280612 9.33243133,11.4280612 L11.6655845,11.4280612 C11.9877258,11.4280612 12.2488728,11.683927 12.2488728,11.9995535 L12.2488728,15.4156491 C12.2483884,15.5675275 12.3096279,15.713348 12.4190682,15.8209102 C12.5285086,15.9284724 12.6771471,15.9889281 12.8321611,15.9889273 L16.9159083,16 C17.2380496,16 17.4991966,15.7441342 17.4991966,15.4285076 L17.4991966,9.57071102 L10.7793509,4.1508204 C10.6165755,4.0222685 10.3843568,4.0222685 10.2215814,4.1508204 Z M20.8385222,7.83730327 L17.7908408,5.37595714 L17.7908408,0.428619266 C17.7908408,0.191899382 17.5949805,8.8817842e-16 17.3533746,8.8817842e-16 L15.3118655,8.8817842e-16 C15.0702596,8.8817842e-16 14.8743993,0.191899382 14.8743993,0.428619266 L14.8743993,3.022123 L11.6105367,0.39111508 C10.9645713,-0.129698589 10.0327154,-0.129698589 9.38675005,0.39111508 L0.158764572,7.83730327 C0.0693000567,7.90975298 0.0128885344,8.01406726 0.00194876684,8.12728174 C-0.00899100069,8.24049621 0.0264378274,8.35332959 0.100435742,8.44094207 L1.03005147,9.54820851 C1.10384921,9.6361282 1.21031133,9.69167438 1.3259578,9.70259641 C1.44160426,9.71351845 1.55693511,9.67891913 1.6465143,9.60642929 L10.2215814,2.68637125 C10.3843568,2.55781934 10.6165755,2.55781934 10.7793509,2.68637125 L19.3547826,9.60642929 C19.4442034,9.67893073 19.5593657,9.71364307 19.674917,9.70292454 C19.7904683,9.69220601 19.8969357,9.63693531 19.9708808,9.54928005 L20.9004966,8.44201362 C20.9744193,8.3538908 21.0094415,8.24053273 20.9978097,8.1270359 C20.9861779,8.01353907 20.9288515,7.90926651 20.8385222,7.83730327 L20.8385222,7.83730327 Z" id="Shape"></path>
            </g>
        </g>
    </g>
</svg>