<?xml version="1.0" encoding="UTF-8"?>
<svg width="25px" height="26px" viewBox="0 0 25 26" version="1.1" xmlns="http://www.w3.org/2000/svg" xmlns:xlink="http://www.w3.org/1999/xlink">
    <title>Humid weather</title>
    <g id="Page-1" stroke="none" stroke-width="1" fill="none" fill-rule="evenodd">
        <g id="weather" transform="translate(-265.000000, -299.000000)" fill-rule="nonzero">
            <g id="Humid-weather" transform="translate(265.000000, 299.000000)">
                <path d="M21.2998352,15.8725712 C22.9921381,16.2379268 24.1916978,17.7996722 23.9746203,19.5411007 C23.7680587,21.1949337 22.3221274,22.4167787 20.6696344,22.4384904 C20.3105928,22.4429825 20.1288186,22.7214912 20.1258141,23 L10.6517717,23 C10.6517717,22.7214912 10.4684952,22.4422338 10.1079513,22.4384904 C8.26767513,22.418276 6.62569808,21.1956824 6.1389638,19.4138252 C5.8946076,18.5016326 5.97421891,17.5332829 6.36430375,16.6729096 C6.52704782,16.3093827 6.74130272,15.9710228 7.00051352,15.6681817 C7.30158582,15.3155719 7.66107691,15.0170168 8.06336692,14.7854886 C9.08340572,14.1992725 10.2822142,14.1056876 11.4006515,14.4493315 C11.6515299,14.5241994 11.8986527,14.3939292 12.0368612,14.191037 C13.1365202,12.5791301 15.1480547,11.7106619 17.0807203,12.0872477 C17.4374409,12.1570373 17.7855032,12.2652318 18.1187863,12.4099285 C18.1841349,12.4383783 18.2487323,12.4675768 18.3118275,12.4982727 C18.3749227,12.5289686 18.4575473,12.5731407 18.528905,12.6098259 C19.6611341,13.2269284 20.5126116,14.2535638 20.9077437,15.4780171 C20.9600128,15.6689503 21.1087832,15.818655 21.2998352,15.8725712 L21.2998352,15.8725712 Z M18.0699626,22.7229886 C18.3411217,22.6481206 18.5732218,22.3172043 18.4635564,22.0327061 L17.9069668,20.5952415 C17.7980524,20.3122406 17.5314002,20.1168353 17.214422,20.2029334 C16.9425118,20.2778014 16.7111628,20.6087177 16.8208282,20.8932159 L17.3744134,22.3306805 C17.4833277,22.6166761 17.7537356,22.8090867 18.0677092,22.7229886 L18.0699626,22.7229886 Z M15.2156567,22.7229886 C15.4868158,22.6481206 15.7189159,22.3172043 15.6092505,22.0327061 L15.0556653,20.5952415 C14.946751,20.3122406 14.6800988,20.1168353 14.3631206,20.2029334 C14.0912104,20.2778014 13.8598614,20.6087177 13.9695268,20.8932159 L14.5231119,22.3306805 C14.6320262,22.6166761 14.9024342,22.8090867 15.2164078,22.7229886 L15.2156567,22.7229886 Z M12.3613508,22.7229886 C12.6325098,22.6481206 12.8638588,22.3172043 12.7541934,22.0327061 C12.5704161,21.5535512 12.3858878,21.0743963 12.2006083,20.5952415 C12.091694,20.3122406 11.8250417,20.1168353 11.5073124,20.2029334 C11.2361533,20.2778014 11.0048043,20.6087177 11.1144697,20.8932159 C11.298247,21.3723708 11.4827754,21.8515257 11.6680549,22.3306805 C11.7807248,22.6166761 12.0511328,22.8090867 12.3651064,22.7229886 L12.3613508,22.7229886 Z" id="Shape" fill="#79CBF0"></path>
                <path d="M24.3980057,12 C25.2014955,12 25.1998336,13 24.3980057,13 L21.6019943,13 C20.7985045,13 20.8001664,12 21.6019943,12 L24.3980057,12 Z" id="Path" fill="#02005C"></path>
                <path d="M22.2356293,6.06656461 C22.8071649,5.76366148 23.3220926,6.57536677 22.751921,6.8801474 L20.7645048,7.9334242 C20.1922871,8.23632733 19.6780415,7.42462204 20.2482131,7.12297057 L22.2356293,6.06656461 Z" id="Path" fill="#02005C"></path>
                <path d="M19.9671372,25.4448986 C20.0965023,25.6670658 19.8235951,25.9260661 19.5037265,25.9839465 C19.1333524,26.0511813 18.8143699,25.8991722 18.6858909,25.6781742 C18.4679195,25.3039978 18.2502435,24.9296265 18.0328628,24.5550603 C17.9034977,24.332893 18.1764049,24.0738928 18.4962735,24.0160124 C18.8666476,23.9487775 19.1856301,24.1013714 19.3141091,24.3223693 C19.5320805,24.6965457 19.7497565,25.0707222 19.9671372,25.4448986 Z" id="Path" fill="#02005C"></path>
                <path d="M18.999625,13.021 C18.999625,13.007 18.999625,12.993 18.999625,12.979 C19.000625,12.993 19.000625,13.007 18.999625,13.021 Z" id="Path" fill="#FFFFFF"></path>
                <path d="M18.9672216,23.4446036 C19.0965343,23.6669054 18.8228519,23.9260625 18.5031129,23.9839779 C18.1328888,24.0512535 17.8140355,23.8985673 17.6856084,23.6774355 L17.0328448,22.5553964 C16.9035321,22.3330946 17.1763288,22.0739375 17.4969535,22.0160221 C17.8671777,21.9487465 18.1851453,22.1014327 18.3135723,22.3225645 L18.9672216,23.4446036 Z" id="Path" fill="#02005C"></path>
                <path d="M17.1221593,2.24819861 C17.4247034,1.67745569 18.2364987,2.19364732 17.9333282,2.76439024 L16.8797482,4.75210304 C16.5772041,5.32216407 15.7654088,4.80665433 16.0654473,4.23591141 L17.1221593,2.24819861 Z" id="Path" fill="#02005C"></path>
                <path d="M16.9671506,25.4448986 C17.096463,25.6670658 16.8236669,25.9260661 16.5039286,25.9839465 C16.1337054,26.0511813 15.8148528,25.8991722 15.6864261,25.6781742 L15.0327783,24.5550603 C14.9034659,24.332893 15.1771477,24.0738928 15.4968859,24.0160124 C15.8671092,23.9487775 16.1859618,24.1013714 16.3143885,24.3223693 C16.5322711,24.6965457 16.7498584,25.0707222 16.9671506,25.4448986 Z" id="Path" fill="#02005C"></path>
                <path d="M12.6019732,7.10743295 C14.8854409,7.58715964 16.6375838,9.45706593 17,11.801056 C16.7715522,11.7250546 16.5381659,11.6653887 16.3015457,11.6224942 C14.2684775,11.2576378 12.203751,12.0661876 10.9354381,13.7238695 C9.33933981,13.354044 7.66793894,13.8347229 6.49811899,15 C5.74207818,13.2951424 5.85184624,11.3219729 6.79213372,9.71484809 C7.9803868,7.7210235 10.3474086,6.64206932 12.6019732,7.10743295 Z" id="Path" fill="#F7AD1E"></path>
                <path d="M16.9671489,23.4446036 C17.0967486,23.6669054 16.8224588,23.9260625 16.5020102,23.9839779 C16.1309645,24.0512535 15.8114036,23.8985673 15.6826916,23.6774355 L15.0329177,22.5553964 C14.903318,22.3330946 15.1767201,22.0739375 15.4980564,22.0160221 C15.8691021,21.9487465 16.1877753,22.1014327 16.3164874,22.3225645 L16.9671489,23.4446036 Z" id="Path" fill="#02005C"></path>
                <path d="M13.9671552,25.4448986 C14.0964679,25.6670658 13.8236712,25.9260661 13.5030465,25.9839465 C13.1328223,26.0511813 12.8148547,25.8991722 12.6864277,25.6781742 L12.0327784,24.5556449 C11.9034657,24.332893 12.1771481,24.0738928 12.4968871,24.0160124 C12.8671112,23.9487775 13.1859645,24.1013714 13.3143916,24.3223693 L13.9671552,25.4448986 Z" id="Path" fill="#02005C"></path>
                <path d="M12.9671372,23.4449283 C13.0965023,23.6671001 12.8235951,23.9261057 12.5037265,23.9839873 C12.1333524,24.0512235 11.8143699,23.8986266 11.6858909,23.6776241 C11.4679195,23.3034399 11.2502435,22.9292558 11.0328628,22.5550717 C10.9034977,22.3328999 11.1764049,22.0738943 11.4962735,22.0160127 C11.8666476,21.9487765 12.1856301,22.1013734 12.3141091,22.3223759 C12.5320805,22.6965601 12.7497565,23.0707442 12.9671372,23.4449283 Z" id="Path" fill="#02005C"></path>
                <path d="M12,0.601947424 L12,3.39774113 C12,4.20116833 11,4.20033748 11,3.39774113 L11,0.601947424 C11,-0.201479771 12,-0.199818081 12,0.601947424 Z" id="Path" fill="#02005C"></path>
                <path d="M7.93338297,4.23607054 C8.23652461,4.80750179 7.42418019,5.32165353 7.11915958,4.75226798 L6.06505344,2.7645328 C5.76566976,2.19310156 6.57989316,1.67758602 6.87927684,2.24833537 L7.93338297,4.23607054 Z" id="Path" fill="#02005C"></path>
                <path d="M19,12.0158989 C18.6120095,11.7881997 18.1994907,11.6037548 17.7700655,11.4659721 C17.3546764,8.86555444 15.3464302,6.79108433 12.7291977,6.25887655 C10.1450929,5.74260312 7.43209346,6.93959262 6.07015843,9.15383197 C4.99197851,10.9355445 4.86472752,13.1235313 5.72928644,15.0148738 C5.42463024,15.3102342 5.15762803,15.6410452 4.93417728,16 C3.43791228,13.3612692 3.76946659,10.0211713 5.71065107,7.6822615 C7.68056508,5.31122799 11.1133557,4.37428734 14.0398854,5.43130937 C16.873449,6.46191967 18.8199042,9.0458536 19,12.0158989 L19,12.0158989 Z" id="Path" fill="#02005C"></path>
                <path d="M4.75180139,7.12254981 C5.32254431,7.42503035 4.80635268,8.23602889 4.23560976,7.93354836 L2.24789696,6.87956337 C1.67783593,6.57708284 2.19334567,5.76545804 2.76408859,6.06543356 L4.75180139,7.12254981 Z" id="Path" fill="#02005C"></path>
                <path d="M4.23569201,16.0666801 C4.80718073,15.7633023 5.32206614,16.5762796 4.75194136,16.8784038 L2.76400629,17.9333311 C2.19251757,18.2367089 1.67831413,17.4237316 2.24775694,17.1184734 L4.23569201,16.0666801 Z" id="Path" fill="#02005C"></path>
                <path d="M3.3983955,12 C4.20095018,12 4.20011938,13 3.3983955,13 L0.601916168,13 C-0.20146931,13 -0.199807706,12 0.601916168,12 L3.3983955,12 Z" id="Path" fill="#02005C"></path>
            </g>
        </g>
    </g>
</svg>