<?xml version="1.0" encoding="UTF-8"?>
<svg width="42px" height="42px" viewBox="0 0 42 42" version="1.1" xmlns="http://www.w3.org/2000/svg" xmlns:xlink="http://www.w3.org/1999/xlink">
    <title>61983BFB-38D4-4806-8A19-7709B981745F</title>
    <defs>
        <circle id="path-1" cx="21" cy="21" r="21"></circle>
        <rect id="path-3" x="0" y="0" width="44" height="45"></rect>
        <rect id="path-5" x="0" y="0" width="42" height="42"></rect>
        <path d="M23.87,0 L21.7,1.78 L19.53,0 L17.36,1.78 L15.19,0 L13.02,1.78 L10.85,0 L8.68,1.78 L6.51,0 L4.34,1.78 L2.17,0 L0,1.78 L0,8.93 C0,10.59 1.34,11.93 3,11.93 L23,11.93 C24.66,11.93 26,10.59 26,8.93 L26,1.78 L23.83,0 L23.87,0 Z" id="path-7"></path>
        <rect id="path-9" x="0" y="0" width="42" height="42"></rect>
        <path d="M2.17,20.84 L4.34,23 L6.51,20.84 L8.68,23 L10.85,20.84 L13.02,23 L15.19,20.84 L17.36,23 L19.53,20.84 L21.7,23 L23.87,20.84 L26.04,23 L26.04,2 C26.04,0.9 25.14,0 24.04,0 L2,0 C0.9,0 0,0.9 0,2 L0,23 L2.17,20.84 Z" id="path-11"></path>
        <path d="M10.8450446,-1.77635684e-15 C11.8450446,-1.77635684e-15 12.6450446,0.79 12.6450446,1.76 C12.6450446,2.73 11.8350446,3.52 10.8450446,3.52 C9.85504465,3.52 9.04504465,2.73 9.04504465,1.76 C9.04504465,0.79 9.85504465,-1.77635684e-15 10.8450446,-1.77635684e-15 Z M2.17504465,-1.77635684e-15 C3.17504465,-1.77635684e-15 3.97504465,0.79 3.97504465,1.76 C3.97504465,2.73 3.16504465,3.52 2.17504465,3.52 C1.18504465,3.52 0.375044647,2.73 0.375044647,1.76 C0.375044647,0.79 1.18504465,-1.77635684e-15 2.17504465,-1.77635684e-15 Z M6.50504465,6.67 C8.86504465,6.67 11.0750446,7.59 12.6850446,9.19 C13.1050446,9.61 13.0950446,10.27 12.6750446,10.68 C12.2450446,11.09 11.5650446,11.08 11.1450446,10.67 C9.92504465,9.47 8.27504465,8.78 6.50504465,8.78 C4.73504465,8.78 3.07504465,9.47 1.85504465,10.68 C1.43504465,11.1 0.755044647,11.1 0.325044647,10.7 C-0.104955353,10.29 -0.104955353,9.63 0.305044647,9.21 C1.92504465,7.6 4.13504465,6.68 6.50504465,6.68 L6.50504465,6.67 Z" id="path-13"></path>
    </defs>
    <g id="Page-1" stroke="none" stroke-width="1" fill="none" fill-rule="evenodd">
        <g id="dahboard-live-no-data" transform="translate(-296.000000, -323.000000)">
            <g id="Group-2" transform="translate(241.000000, 315.000000)">
                <g id="not-found/verticle" transform="translate(15.000000, 8.000000)">
                    <g id="icon-data-unavailable" transform="translate(40.000000, 0.000000)">
                        <circle id="Oval" stroke="#B6B6B6" stroke-width="2" cx="21" cy="21" r="21"></circle>
                        <g id="Clipped">
                            <mask id="mask-2" fill="white">
                                <use xlink:href="#path-1"></use>
                            </mask>
                            <g id="Oval"></g>
                            <g mask="url(#mask-2)">
                                <g transform="translate(-1.000000, -1.000000)">
                                    <mask id="mask-4" fill="white">
                                        <use xlink:href="#path-3"></use>
                                    </mask>
                                    <g id="Rectangle" stroke="none" fill="none"></g>
                                    <g id="Group" stroke="none" stroke-width="1" fill="none" fill-rule="evenodd" mask="url(#mask-4)">
                                        <g transform="translate(1.000000, 1.000000)" id="Clipped">
                                            <g>
                                                <mask id="mask-6" fill="white">
                                                    <use xlink:href="#path-5"></use>
                                                </mask>
                                                <g id="Rectangle"></g>
                                                <rect id="Rectangle" fill="#B6B6B6" fill-rule="nonzero" mask="url(#mask-6)" x="-1" y="-1" width="44" height="44"></rect>
                                            </g>
                                            <g transform="translate(7.960000, 33.220000)">
                                                <mask id="mask-8" fill="white">
                                                    <use xlink:href="#path-7"></use>
                                                </mask>
                                                <g id="Path"></g>
                                                <g mask="url(#mask-8)">
                                                    <g transform="translate(-7.960000, -33.220000)">
                                                        <mask id="mask-10" fill="white">
                                                            <use xlink:href="#path-9"></use>
                                                        </mask>
                                                        <g id="Rectangle" stroke="none" fill="none"></g>
                                                        <rect id="Rectangle" stroke="none" fill="#FFFFFF" fill-rule="nonzero" mask="url(#mask-10)" x="7" y="32.22" width="28" height="10.78"></rect>
                                                    </g>
                                                </g>
                                            </g>
                                        </g>
                                    </g>
                                </g>
                            </g>
                        </g>
                        <g id="Clipped" transform="translate(8.000000, 9.000000)">
                            <mask id="mask-12" fill="white">
                                <use xlink:href="#path-11"></use>
                            </mask>
                            <g id="Path"></g>
                            <rect id="Rectangle" fill="#FFFFFF" fill-rule="nonzero" mask="url(#mask-12)" x="-1" y="-1" width="28" height="25"></rect>
                        </g>
                        <g id="Clipped" transform="translate(13.994955, 15.000000)">
                            <mask id="mask-14" fill="white">
                                <use xlink:href="#path-13"></use>
                            </mask>
                            <g id="Shape"></g>
                            <rect id="Rectangle" fill="#B6B6B6" fill-rule="nonzero" mask="url(#mask-14)" x="-1.10495535" y="-1" width="15.22" height="13.11"></rect>
                        </g>
                    </g>
                </g>
            </g>
        </g>
    </g>
</svg>