<?xml version="1.0" encoding="UTF-8"?>
<svg width="24px" height="24px" viewBox="0 0 24 20" version="1.1" xmlns="http://www.w3.org/2000/svg" xmlns:xlink="http://www.w3.org/1999/xlink">
    <title>0EE02789-3B37-4739-8B30-B778137B270E</title>
    <g id="Page-1" stroke="none" stroke-width="1" fill="none" fill-rule="evenodd">
        <g id="dahboard-live-status" transform="translate(-629.000000, -181.000000)" fill="#FFFFFF" fill-rule="nonzero">
            <g id="Group-4" transform="translate(543.000000, 147.000000)">
                <g id="lifetime-savings-icon" transform="translate(86.000000, 34.000000)">
                    <path d="M0,2.4 C0,1.08 1.08,0 2.4,0 L20.4,0 C21.0627417,0 21.6,0.5372583 21.6,1.2 L21.6,2.4 L2.4,2.4 L2.4,3.6 L22.8,3.6 C23.4627417,3.6 24,4.1372583 24,4.8 L24,16.8 C24,18.1254834 22.9254834,19.2 21.6,19.2 L2.4,19.2 C1.0745166,19.2 0,18.1254834 0,16.8 L0,2.4 Z M19.8,13.2 C20.7941125,13.2 21.6,12.3941125 21.6,11.4 C21.6,10.4058875 20.7941125,9.6 19.8,9.6 C18.8058875,9.6 18,10.4058875 18,11.4 C18,12.3941125 18.8058875,13.2 19.8,13.2 Z" id="Shape"></path>
                </g>
            </g>
        </g>
    </g>
</svg>