<?xml version="1.0" encoding="UTF-8"?>
<svg width="15px" height="20px" viewBox="0 0 15 20" version="1.1" xmlns="http://www.w3.org/2000/svg" xmlns:xlink="http://www.w3.org/1999/xlink">
    <title>location</title>
    <g id="Page-1" stroke="none" stroke-width="1" fill="none" fill-rule="evenodd">
        <g id="weather" transform="translate(-43.000000, -113.000000)" fill="#B8B8B8" fill-rule="nonzero">
            <g id="location" transform="translate(43.000000, 113.000000)">
                <path d="M7.48440748,0 C3.32640333,0 0,3.32640333 0,7.48440748 C0,12.6403326 2.82744283,17.2141372 7.06860707,19.8752599 C7.31808732,20.04158 7.65072765,20.04158 7.98336798,19.8752599 C12.1413721,17.1309771 14.968815,12.6403326 14.968815,7.48440748 C14.968815,3.32640333 11.6424116,0 7.48440748,0 Z M7.48440748,10.8108108 C5.65488565,10.8108108 4.15800416,9.31392931 4.15800416,7.48440748 C4.15800416,5.65488565 5.65488565,4.15800416 7.48440748,4.15800416 C9.31392931,4.15800416 10.8108108,5.65488565 10.8108108,7.48440748 C10.8108108,9.31392931 9.31392931,10.8108108 7.48440748,10.8108108 Z" id="pin"></path>
            </g>
        </g>
    </g>
</svg>