<?xml version="1.0" encoding="UTF-8"?>
<svg width="16px" height="16.2999099px" viewBox="0 0 16 16.2999099" version="1.1" xmlns="http://www.w3.org/2000/svg" xmlns:xlink="http://www.w3.org/1999/xlink">
    <title>AF223D91-835F-434C-889B-5694661C57FD</title>
    <g id="Page-1" stroke="none" stroke-width="1" fill="none" fill-rule="evenodd">
        <g id="program-management-v2" transform="translate(-1344, -227)" fill="#515151">
            <g id="Group" transform="translate(1318, 227)">
                <g id="operation-icon" transform="translate(26, 0)">
                    <path d="M15.2969744,12.2575125 C16.2343419,13.19488 16.2343419,14.6595168 15.2969744,15.5968843 C14.3596069,16.5342518 12.8949701,16.5342518 11.9576026,15.5968843 L6.97783773,10.6757049 C6.8606668,10.5585339 6.74349586,10.3827775 6.62632492,10.2070211 C4.7515899,10.7342903 2.70109848,10.1484356 1.41221815,8.56662796 L1.11929081,8.15652967 C-0.169589516,6.574722 -0.345345924,4.40705964 0.592021584,2.70808103 C0.592021584,2.70808103 0.592021584,2.7666665 0.650607053,2.7666665 L2.93544035,5.69593996 C3.63846599,6.574722 4.86876084,6.69189294 5.74754288,5.98886731 C6.62632492,5.28584168 6.74349586,4.05554683 6.04047023,3.17676479 L3.75563692,0.247491323 C3.75563692,0.247491323 3.69705146,0.188905854 3.69705146,0.188905854 C5.57178647,-0.33836337 7.6222779,0.247491323 8.91115822,1.82929899 L9.20408557,2.23939728 C10.375795,3.64544854 10.6101368,5.52018356 10.0242821,7.10199123 C10.1414531,7.1605767 10.2000385,7.21916217 10.3172095,7.3363331 L15.2969744,12.2575125 Z M13.6565812,14.8352732 C14.125265,14.8352732 14.4767778,14.4837604 14.4767778,14.0150766 C14.4767778,13.5463928 14.125265,13.19488 13.6565812,13.19488 C13.1878975,13.19488 12.8363847,13.5463928 12.8363847,14.0150766 C12.8363847,14.4251749 13.1878975,14.8352732 13.6565812,14.8352732 Z" id="Shape"></path>
                </g>
            </g>
        </g>
    </g>
</svg>