<?xml version="1.0" encoding="UTF-8"?> <svg xmlns="http://www.w3.org/2000/svg" width="114" height="29" viewBox="0 0 114 29" fill="none"><g clip-path="url(#clip0_2_1012)"><path d="M28.41 3.48C27.18 2.09 25.73 0.91 24.09 0H8.38C3.38 2.77 0 8.09 0 14.21C0 20.33 3.38 25.65 8.38 28.42H24.1C25.73 27.51 27.19 26.33 28.42 24.94V28.42H32.48V0H28.42V3.48H28.41ZM16.23 26.38C9.5 26.38 4.05 20.93 4.05 14.2C4.05 7.47 9.51 2.03 16.24 2.03C22.97 2.03 28.42 7.48 28.42 14.21C28.42 20.94 22.97 26.39 16.24 26.39L16.23 26.38Z" fill="#F05A23"></path><path d="M109.59 0V3.48C108.36 2.09 106.91 0.91 105.27 0H89.5499C84.5599 2.77 81.1699 8.09 81.1699 14.21C81.1699 20.33 84.5499 25.65 89.5399 28.42H105.26C106.89 27.51 108.35 26.33 109.58 24.94V28.42H113.64V0H109.58H109.59ZM97.4099 26.38C90.6899 26.38 85.2299 20.93 85.2299 14.2C85.2299 7.47 90.6799 2.02 97.4099 2.02C104.14 2.02 109.59 7.47 109.59 14.2C109.59 20.93 104.14 26.38 97.4099 26.38Z" fill="#F05A23"></path><path d="M77.1196 0H73.0596V28.41H77.1196V0Z" fill="#F05A23"></path><path d="M52.7698 16.2402C45.1998 16.2402 38.8498 21.4102 37.0498 28.4202H41.2998C42.9698 23.6902 47.4698 20.3002 52.7698 20.3002C58.0698 20.3002 62.5698 23.6902 64.2398 28.4202H68.4998C66.6998 21.4202 60.3398 16.2402 52.7798 16.2402H52.7698Z" fill="#F05A23"></path><path d="M52.7698 8.12C47.4698 8.12 42.9698 4.73 41.2998 0H37.0498C38.8498 7 45.2098 12.18 52.7698 12.18C60.3298 12.18 66.6898 7.01 68.4898 0H64.2298C62.5598 4.73 58.0598 8.12 52.7598 8.12H52.7698Z" fill="#F05A23"></path></g><defs><clipPath id="clip0_2_1012"><rect width="113.65" height="28.41" fill="white"></rect></clipPath></defs></svg> 