<?xml version="1.0" encoding="UTF-8"?>
<svg width="15px" height="21px" viewBox="0 0 15 21" version="1.1" xmlns="http://www.w3.org/2000/svg" xmlns:xlink="http://www.w3.org/1999/xlink">
    <title>C832E64F-8533-4968-9248-EE640AB852CD</title>
    <g id="Page-1" stroke="none" stroke-width="1" fill="none" fill-rule="evenodd">
        <g id="dahboard-live-status" transform="translate(-1048.000000, -892.000000)" fill="#FFFFFF" fill-rule="nonzero">
            <g id="production-icon" transform="translate(1048.000000, 892.000000)">
                <path d="M14.0502971,10.1111008 L8.05029711,19.5811008 C7.86103515,19.8763962 7.53090006,20.0509504 7.18029711,20.0411008 C7.08753532,20.0557083 6.9930589,20.0557083 6.90029711,20.0411008 C6.45903805,19.9127947 6.1620216,19.5002719 6.18029711,19.0411008 L6.18029711,13.0411008 L2.00029711,13.0411008 C1.27107738,13.0412087 0.59959528,12.6444176 0.247931003,12.0055955 C-0.103733274,11.3667734 -0.0798354565,10.5871836 0.310297111,9.97110083 L6.31029711,0.501100828 C6.54111047,0.100254683 7.01671079,-0.0899854456 7.46029711,0.041100828 C7.90155617,0.16940696 8.19857262,0.581929803 8.18029711,1.04110083 L8.18029711,7.04110083 L12.3602971,7.04110083 C13.0895168,7.04099294 13.7609989,7.43778404 14.1126632,8.07660613 C14.4643275,8.71542822 14.4404297,9.49501804 14.0502971,10.1111008 Z" id="Path"></path>
            </g>
        </g>
    </g>
</svg>