<?xml version="1.0" encoding="UTF-8"?>
<svg width="24px" height="16px" viewBox="0 0 24 16" version="1.1" xmlns="http://www.w3.org/2000/svg" xmlns:xlink="http://www.w3.org/1999/xlink">
    <title>Rainy cloud</title>
    <g id="Page-1" stroke="none" stroke-width="1" fill="none" fill-rule="evenodd">
        <g id="weather" transform="translate(-165.000000, -305.000000)" fill-rule="nonzero">
            <g id="Rainy-cloud" transform="translate(165.000000, 305.000000)">
                <path d="M19.3249414,15 C21.7247931,15.0008054 23.735154,13.1760674 23.976117,10.7782816 C24.21708,8.38049579 22.6103074,6.1891877 20.2586843,5.70846615 C19.4988807,3.24284386 17.3934205,1.43679613 14.8495613,1.06856155 C12.3057021,0.700326962 9.77802335,1.83570787 8.35571957,3.9854607 C6.2441692,3.29724756 3.92706334,3.92163332 2.44226403,5.57894743 C0.957464715,7.23626154 0.583198236,9.61595134 1.48710344,11.6521226 C2.39100865,13.6882939 4.403709,14.9994027 6.62368965,14.998186" id="Path" fill="#B8B8B8"></path>
                <path d="M18.7251752,14.9990602 C21.3901424,14.9711026 23.6256698,12.9905173 23.9618869,10.3595493 C24.2914639,7.7002958 22.4476141,5.17666423 19.8234684,4.61024324 L20.2902207,5.07472618 C19.4823116,2.55818596 17.3356072,0.570837183 14.6954281,0.110786329 C11.8346789,-0.390155596 8.94618906,0.834898368 7.32804549,3.23540918 L8.08250965,2.92959503 C5.2855587,2.07065615 2.17239196,3.26377455 0.755210766,5.83438626 C-0.595164277,8.28533156 -0.101689493,11.4516161 1.9719735,13.3503231 C3.12601731,14.4018683 4.63120262,14.9897069 6.19590388,15 C7.05636713,15.0096972 7.05636713,13.6800705 6.19590388,13.6703199 C4.01356954,13.6463866 2.06639287,12.1988663 1.4891877,10.0891919 C0.923909122,7.96029527 1.85670219,5.71782182 3.76861365,4.60935682 C4.9782504,3.91529166 6.39988534,3.80360301 7.72621016,4.21135521 C8.02372023,4.299997 8.31677656,4.14576029 8.48067432,3.90554106 C9.78651193,1.99885631 12.171937,0.967952371 14.4638334,1.41382054 C16.5983541,1.82980411 18.3368613,3.36766797 19.0021981,5.4284069 C19.0653184,5.65388617 19.2423695,5.83007643 19.4689504,5.89288984 C21.4758072,6.32634816 22.8983329,8.17541575 22.6409066,10.2363372 C22.3968414,12.1944342 20.6812594,13.6410681 18.7216122,13.6667742 C17.8629305,13.6782976 17.8602582,15.0079244 18.7216122,14.996401 L18.7251752,14.9990602 Z" id="Path" fill="#BFBFBF"></path>
                <line x1="10" y1="15" x2="9" y2="14" id="Path" fill="#2EA7E0"></line>
                <path d="M9.96722051,15.1676358 L9.31443524,13.4834226 C9.18600395,13.1520157 8.8715687,12.9231872 8.49690361,13.024012 C8.17715398,13.1116858 7.90346246,13.4992039 8.03277949,13.833241 L8.68556476,15.5165774 C8.81399605,15.8479843 9.1284313,16.0768128 9.50309639,15.975988 C9.82284602,15.8883142 10.0965375,15.5007961 9.96722051,15.166759 L9.96722051,15.1676358 Z" id="Path" fill="#2EA7E0"></path>
                <line x1="13" y1="15" x2="12" y2="14" id="Path" fill="#2EA7E0"></line>
                <path d="M13.9672205,15.1676358 L13.3144352,13.4834226 C13.1860039,13.1520157 12.8715687,12.9231872 12.4969036,13.024012 C12.177154,13.1116858 11.9034625,13.4992039 12.0327795,13.833241 L12.6855648,15.5165774 C12.8139961,15.8479843 13.1284313,16.0768128 13.5030964,15.975988 C13.822846,15.8883142 14.0965375,15.5007961 13.9672205,15.166759 L13.9672205,15.1676358 Z" id="Path" fill="#2EA7E0"></path>
                <line x1="17" y1="15" x2="16" y2="14" id="Path" fill="#2EA7E0"></line>
                <path d="M16.9672205,15.1676358 L16.3144352,13.4834226 C16.1860039,13.1520157 15.8715687,12.9231872 15.4969036,13.024012 C15.177154,13.1116858 14.9034625,13.4992039 15.0327795,13.833241 L15.6855648,15.5165774 C15.8139961,15.8479843 16.1284313,16.0768128 16.5030964,15.975988 C16.822846,15.8883142 17.0965375,15.5007961 16.9672205,15.166759 L16.9672205,15.1676358 Z" id="Path" fill="#2EA7E0"></path>
            </g>
        </g>
    </g>
</svg>