<?xml version="1.0" encoding="UTF-8"?>
<svg width="16px" height="16.0206052px" viewBox="0 0 16 16.0206052" version="1.1" xmlns="http://www.w3.org/2000/svg" xmlns:xlink="http://www.w3.org/1999/xlink">
    <title>732B976F-524F-40CB-A7A4-4C8CF1003466</title>
    <g id="Page-1" stroke="none" stroke-width="1" fill="none" fill-rule="evenodd">
        <g id="admin" transform="translate(-1239.000000, -349.000000)" fill="#515151" fill-rule="nonzero">
            <g id="buttons/settings" transform="translate(1229.000000, 339.000000)">
                <g id="settings-icon" transform="translate(10.000000, 10.000000)">
                    <path d="M15.0362619,6.3606933 L14.402278,6.3606933 C13.8850806,6.3606933 13.4513022,5.91440203 13.4513022,5.38469183 C13.4513022,5.11775126 13.5639178,4.87583637 13.7641232,4.69648567 L14.1728759,4.29607482 C14.5774577,3.89566396 14.5774577,3.24082537 14.1728759,2.84041451 L13.2427549,1.91863535 C13.0592333,1.73511371 12.7881217,1.62666911 12.5128393,1.62666911 C12.2375568,1.62666911 11.9706162,1.73511371 11.7829236,1.91863535 L11.3908547,2.31070432 C11.2031621,2.51925164 10.9529053,2.63186719 10.6817938,2.63186719 C10.1479126,2.63186719 9.70162138,2.19808877 9.70162138,1.68506236 L9.70162138,1.04690755 C9.70162138,0.483829785 9.24698822,-1.18545427e-15 8.67973951,-1.18545427e-15 L7.41177179,-1.18545427e-15 C6.84452308,-1.18545427e-15 6.39406087,0.479658839 6.39406087,1.04690755 L6.39406087,1.68089141 C6.39406087,2.19391782 5.9477696,2.62769625 5.41388846,2.62769625 C5.14694789,2.62769625 4.90086205,2.51508069 4.72151135,2.31904621 L4.31692955,1.91863535 C4.13340791,1.73094277 3.86229639,1.62666911 3.58701392,1.62666911 C3.31173146,1.62666911 3.04479089,1.73511371 2.8570983,1.91863535 L1.91863535,2.83624357 C1.5182245,3.23665442 1.5182245,3.89149301 1.91863535,4.28773292 L2.31070432,4.67980189 C2.51925164,4.86749448 2.63603814,5.11775126 2.63603814,5.38469183 C2.63603814,5.91857297 2.20225971,6.3606933 1.68506236,6.3606933 L1.0510785,6.3606933 C0.479658839,6.3606933 0,6.80698456 0,7.37423328 L0,8.00821713 L0,8.64220099 C0,9.20527876 0.479658839,9.65574097 1.0510785,9.65574097 L1.68506236,9.65574097 C2.20225971,9.65574097 2.63603814,10.1020322 2.63603814,10.6317424 C2.63603814,10.898683 2.51925164,11.1489398 2.31070432,11.3366324 L1.91863535,11.7245304 C1.5182245,12.1249413 1.5182245,12.7797798 1.91863535,13.1760198 L2.84875641,14.1019699 C3.03227805,14.2896624 3.30338957,14.3939361 3.57867203,14.3939361 C3.8539545,14.3939361 4.12089507,14.2854915 4.30858766,14.1019699 L4.71316946,13.701559 C4.88834921,13.5055245 5.13860599,13.392909 5.40554656,13.392909 C5.93942771,13.392909 6.38571897,13.8266874 6.38571897,14.3397138 L6.38571897,14.9736977 C6.38571897,15.5367754 6.83618119,16.0206052 7.40760085,16.0206052 L8.67556856,16.0206052 C9.24281727,16.0206052 9.69327949,15.5409464 9.69327949,14.9736977 L9.69327949,14.3397138 C9.69327949,13.8266874 10.1395708,13.392909 10.6734519,13.392909 C10.9403925,13.392909 11.1906493,13.5096955 11.3825128,13.7140718 L11.7745818,14.1061408 C11.9622743,14.2896624 12.2292149,14.3981071 12.5044974,14.3981071 C12.7797798,14.3981071 13.0467204,14.2896624 13.234413,14.1061408 L14.1645341,13.1801907 C14.5649449,12.7797798 14.5649449,12.1249413 14.1645341,11.7245304 L13.7557813,11.3241195 C13.5555759,11.1447688 13.4429603,10.898683 13.4429603,10.6359134 C13.4429603,10.1020322 13.8767388,9.65991192 14.3939361,9.65991192 L15.02792,9.65991192 C15.5951687,9.65991192 15.9998771,9.21362065 15.9998771,8.64637194 L15.9998771,8.00821713 L15.9998771,7.37423328 C16.0080924,6.80698456 15.6035106,6.3606933 15.0362619,6.3606933 Z M11.3783418,8.00821713 L11.3783418,8.00821713 C11.3783418,9.84760451 9.88931397,11.3449743 8.0415847,11.3449743 C6.19385544,11.3449743 4.70482757,9.84760451 4.70482757,8.00821713 L4.70482757,8.00821713 L4.70482757,8.00821713 C4.70482757,6.16882976 6.19385544,4.67145999 8.0415847,4.67145999 C9.88931397,4.67145999 11.3783418,6.16882976 11.3783418,8.00821713 L11.3783418,8.00821713 Z" id="Shape"></path>
                </g>
            </g>
        </g>
    </g>
</svg>