<?xml version="1.0" encoding="UTF-8"?>
<svg width="21px" height="19px" viewBox="0 0 21 19" version="1.1" xmlns="http://www.w3.org/2000/svg" xmlns:xlink="http://www.w3.org/1999/xlink">
    <title>4AC9C1A6-BD35-4729-B139-120701BFE8FF</title>
    <g id="Page-1" stroke="none" stroke-width="1" fill="none" fill-rule="evenodd">
        <g id="dahboard-live-status" transform="translate(-741.000000, -369.000000)" fill="#FFFFFF" fill-rule="nonzero">
            <g id="Group-4" transform="translate(543.000000, 147.000000)">
                <g id="Group-31" transform="translate(188.000000, 218.000000)">
                    <g id="solar-icon" transform="translate(20.500000, 13.500000) scale(-1, 1) translate(-20.500000, -13.500000) translate(10.000000, 4.000000)">
                        <path d="M5.91484894,4.67179464 L5.47813184,5.09166071 C5.3575097,5.20749625 5.16203689,5.20749625 5.04141475,5.09166071 L3.29468751,3.41219643 C3.17406537,3.29636089 3.17406537,3.10829821 3.29468751,2.99246607 L3.73140461,2.5726 C3.85188912,2.45663214 4.04749956,2.45663214 4.16798055,2.5726 L5.91484894,4.25192857 C6.03533346,4.36789643 6.03533346,4.55582679 5.91484894,4.67179464 Z M10.8089037,2.96875 L10.1913239,2.96875 C10.0208013,2.96875 9.88253407,2.83581786 9.88253407,2.671875 L9.88253407,0.296875 C9.88253407,0.132932143 10.0208013,0 10.1913239,0 L10.8089037,0 C10.9794263,0 11.1176935,0.132932143 11.1176935,0.296875 L11.1176935,2.671875 C11.1176935,2.83581786 10.9794263,2.96875 10.8089037,2.96875 Z M15.5219193,5.09166071 L15.0852022,4.67179464 C14.9647177,4.55582679 14.9647177,4.36789643 15.0852022,4.25192857 L16.8320706,2.5726 C16.9525551,2.45663214 17.1481656,2.45663214 17.2686465,2.5726 L17.7053636,2.99246607 C17.8259858,3.10830161 17.8259858,3.29636429 17.7053636,3.41219643 L15.9586364,5.09166071 C15.8380143,5.20749625 15.6425415,5.20749625 15.5219193,5.09166071 L15.5219193,5.09166071 Z M17.2933144,9.796875 L17.2933144,9.203125 C17.2933144,9.03918214 17.4315817,8.90625 17.6021043,8.90625 L20.0724233,8.90625 C20.2429458,8.90625 20.3812131,9.03918214 20.3812131,9.203125 L20.3812131,9.796875 C20.3812131,9.96081786 20.2429458,10.09375 20.0724233,10.09375 L17.6021043,10.09375 C17.4315817,10.09375 17.2933144,9.96081786 17.2933144,9.796875 Z M12.6801703,15.140625 L13.7645344,19 L7.23512855,19 L8.31949269,15.140625 L12.6801703,15.140625 Z M12.8752302,11.28125 L15.4405152,11.28125 C15.6380596,11.28125 15.8237323,11.3721684 15.9399432,11.5257732 L17.7761312,13.953125 L13.6259954,13.953125 L12.8752302,11.28125 Z M11.5958167,11.28125 L12.3465466,13.953125 L8.65306692,13.953125 L9.40379684,11.28125 L11.5958167,11.28125 Z M8.12455982,11.28125 L7.3738299,13.953125 L3.22369407,13.953125 L5.05988214,11.5257732 C5.176093,11.3721684 5.36177982,11.28125 5.55931005,11.28125 L8.12455982,11.28125 Z M15.0439232,19 L13.959559,15.140625 L18.6746921,15.140625 L20.8807575,18.0570232 C21.1776934,18.4494411 20.885996,19 20.3813296,19 L15.0439232,19 Z M5.9559727,19 L0.618672167,19 C0.113986007,19 -0.177688079,18.4494411 0.119244258,18.0570232 L2.32530965,15.140625 L7.04044271,15.140625 L5.9559727,19 Z M16.0581656,9.5 L16.0581656,9.796875 C16.0581656,9.96081786 15.9198983,10.09375 15.7493757,10.09375 L15.131796,10.09375 C14.9612734,10.09375 14.8230061,9.96081786 14.8230061,9.796875 L14.8230061,9.5 C14.8230061,7.20452857 12.8875465,5.34375 10.4999479,5.34375 C8.11234939,5.34375 6.17688979,7.20452857 6.17688979,9.5 L6.17688979,9.796875 C6.17688979,9.96081786 6.03862251,10.09375 5.86809992,10.09375 L5.25052019,10.09375 C5.0799976,10.09375 4.94173032,9.96081786 4.94173032,9.796875 L4.94173032,9.5 C4.94173032,6.54875714 7.43025904,4.15625 10.4999479,4.15625 C13.5696368,4.15625 16.0581656,6.54875714 16.0581656,9.5 Z M3.70657085,9.203125 L3.70657085,9.796875 C3.70657085,9.96081786 3.56830357,10.09375 3.39778098,10.09375 L0.927462035,10.09375 C0.756939448,10.09375 0.618672167,9.96081786 0.618672167,9.796875 L0.618672167,9.203125 C0.618672167,9.03918214 0.756939448,8.90625 0.927462035,8.90625 L3.39778098,8.90625 C3.56830357,8.90625 3.70657085,9.03918214 3.70657085,9.203125 Z" id="Shape"></path>
                    </g>
                </g>
            </g>
        </g>
    </g>
</svg>