<?xml version="1.0" encoding="UTF-8"?>
<svg width="15.3043478px" height="16px" viewBox="0 0 15.3043478 16" version="1.1" xmlns="http://www.w3.org/2000/svg" xmlns:xlink="http://www.w3.org/1999/xlink">
    <title>FADDCDF5-9E3C-4BC4-8E74-DA03FD2D0DEC</title>
    <g id="Page-1" stroke="none" stroke-width="1" fill="none" fill-rule="evenodd">
        <g id="program-management-v2" transform="translate(-1337, -227)" fill="#515151" fill-rule="nonzero">
            <g id="trash-icon" transform="translate(1337, 227)">
                <path d="M14.6086957,2.7826087 L10.4347826,2.7826087 L10.4347826,2.08695652 C10.4347826,0.934362261 9.50042035,0 8.34782609,0 L6.95652174,0 C5.80392748,0 4.86956522,0.934362261 4.86956522,2.08695652 L4.86956522,2.7826087 L0.695652174,2.7826087 C0.311454087,2.7826087 0,3.09406278 0,3.47826087 C0,3.86245896 0.311454087,4.17391304 0.695652174,4.17391304 L2.08695652,4.17391304 L2.08695652,13.9130435 C2.08695652,15.0656377 3.02131878,16 4.17391304,16 L11.1304348,16 C12.283029,16 13.2173913,15.0656377 13.2173913,13.9130435 L13.2173913,4.17391304 L14.6086957,4.17391304 C14.9928937,4.17391304 15.3043478,3.86245896 15.3043478,3.47826087 C15.3043478,3.09406278 14.9928937,2.7826087 14.6086957,2.7826087 Z M6.26086957,2.08695652 C6.26086957,1.70275843 6.57232365,1.39130435 6.95652174,1.39130435 L8.34782609,1.39130435 C8.73202417,1.39130435 9.04347826,1.70275843 9.04347826,2.08695652 L9.04347826,2.7826087 L6.26086957,2.7826087 L6.26086957,2.08695652 Z M5.56521739,12.5217391 C5.56521739,12.9059372 5.2537633,13.2173913 4.86956522,13.2173913 C4.48536713,13.2173913 4.17391304,12.9059372 4.17391304,12.5217391 L4.17391304,6.95652174 C4.17391304,6.57232365 4.48536713,6.26086957 4.86956522,6.26086957 C5.2537633,6.26086957 5.56521739,6.57232365 5.56521739,6.95652174 L5.56521739,12.5217391 Z M8.34782609,12.5217391 C8.34782609,12.9059372 8.036372,13.2173913 7.65217391,13.2173913 C7.26797583,13.2173913 6.95652174,12.9059372 6.95652174,12.5217391 L6.95652174,6.95652174 C6.95652174,6.57232365 7.26797583,6.26086957 7.65217391,6.26086957 C8.036372,6.26086957 8.34782609,6.57232365 8.34782609,6.95652174 L8.34782609,12.5217391 Z M11.1304348,12.5217391 C11.1304348,12.9059372 10.8189807,13.2173913 10.4347826,13.2173913 C10.0505845,13.2173913 9.73913043,12.9059372 9.73913043,12.5217391 L9.73913043,6.95652174 C9.73913043,6.57232365 10.0505845,6.26086957 10.4347826,6.26086957 C10.8189807,6.26086957 11.1304348,6.57232365 11.1304348,6.95652174 L11.1304348,12.5217391 Z" id="Shape"></path>
            </g>
        </g>
    </g>
</svg>