<svg xmlns="http://www.w3.org/2000/svg"  viewBox="0 0 50 50" width="100px" height="100px" baseProfile="basic"><path fill="#ffd217" d="M25,40c-8.271,0-15-6.729-15-15s6.729-15,15-15s15,6.729,15,15S33.271,40,25,40z M25,14 c-6.065,0-11,4.935-11,11s4.935,11,11,11s11-4.935,11-11S31.065,14,25,14z"/><rect width="4" height="12" x="23" fill="#ffd217"/><rect width="4" height="12" x="23" y="38" fill="#ffd217"/><rect width="12" height="4" y="23" fill="#ffd217"/><rect width="12" height="4" x="38" y="23" fill="#ffd217"/><rect width="12" height="4" x="32.435" y="9.565" fill="#ffd217" transform="rotate(-45.001 38.435 11.565)"/><rect width="12" height="4" x="5.565" y="36.435" fill="#ffd217" transform="rotate(-45.001 11.565 38.435)"/><rect width="4" height="12" x="9.565" y="5.565" fill="#ffd217" transform="rotate(-45.001 11.565 11.565)"/><rect width="4" height="12" x="36.435" y="32.435" fill="#ffd217" transform="rotate(-45.001 38.435 38.436)"/><path fill="#f68235" d="M25,14c0.684,0,1.35,0.071,2,0.191v-4.042C26.344,10.061,25.68,10,25,10s-1.344,0.061-2,0.149 v4.042C23.65,14.071,24.316,14,25,14z"/><path fill="#f68235" d="M25,36c-0.684,0-1.35-0.071-2-0.191v4.042C23.656,39.939,24.32,40,25,40s1.344-0.061,2-0.149 v-4.042C26.35,35.929,25.684,36,25,36z"/><path fill="#f68235" d="M14,25c0-0.684,0.071-1.35,0.191-2h-4.042C10.061,23.656,10,24.32,10,25s0.061,1.344,0.149,2h4.042 C14.071,26.35,14,25.684,14,25z"/><path fill="#f68235" d="M36,25c0,0.684-0.071,1.35-0.191,2h4.042C39.939,26.344,40,25.68,40,25s-0.061-1.344-0.149-2 h-4.042C35.929,23.65,36,24.316,36,25z"/><path fill="#f68235" d="M18.771,15.943l-2.853-2.853c-1.064,0.814-2.014,1.764-2.828,2.828l2.853,2.853 C16.706,17.666,17.665,16.706,18.771,15.943z"/><path fill="#f68235" d="M31.229,34.057l2.853,2.853c1.064-0.814,2.014-1.764,2.828-2.828l-2.853-2.853 C33.294,32.334,32.335,33.294,31.229,34.057z"/><path fill="#f68235" d="M15.943,31.229l-2.853,2.853c0.814,1.064,1.764,2.014,2.828,2.828l2.853-2.853 C17.666,33.294,16.706,32.335,15.943,31.229z"/><path fill="#f68235" d="M34.057,18.771l2.853-2.853c-0.814-1.064-1.764-2.015-2.828-2.828l-2.853,2.853 C32.335,16.706,33.294,17.665,34.057,18.771z"/></svg>